<svg width="449" height="394" viewBox="0 0 449 394" fill="none" xmlns="http://www.w3.org/2000/svg">
<path d="M373.789 205.424C373.789 169.838 362.499 135.307 341.77 107.495C321.042 79.6827 292.105 60.2392 259.704 52.3525L248.877 103.376C270.477 108.634 289.769 121.597 303.588 140.138C317.407 158.68 324.933 181.7 324.933 205.424H373.789Z" fill="#DB685E" stroke="white"/>
<path d="M259.704 52.3527C229.451 44.989 197.798 48.0964 169.299 61.2277C140.801 74.359 116.928 96.8368 101.117 125.425L143.152 152.092C153.693 133.033 169.608 118.047 188.607 109.293C207.606 100.539 228.708 98.4674 248.877 103.377L259.704 52.3527Z" fill="#E9B829" stroke="white"/>
<path d="M101.118 125.426C88.7257 147.833 81.7334 173.19 80.7711 199.213C79.8088 225.235 84.9067 251.105 95.6055 274.492L139.478 251.47C132.345 235.879 128.947 218.632 129.588 201.283C130.23 183.935 134.891 167.03 143.153 152.092L101.118 125.426Z" fill="#5185DC" stroke="white"/>
<path d="M95.6035 274.491C104.844 294.69 118.03 312.527 134.268 326.792C150.506 341.057 169.417 351.419 189.72 357.174L202.22 306.591C188.685 302.754 176.078 295.846 165.252 286.336C154.427 276.826 145.636 264.935 139.476 251.469L95.6035 274.491Z" fill="#FFF299" stroke="white"/>
<path d="M189.723 357.175C220.655 365.943 253.418 363.629 283.007 350.586C312.597 337.543 337.388 314.486 353.596 284.938L311.472 258.434C300.667 278.133 284.139 293.503 264.413 302.199C244.686 310.895 222.845 312.437 202.223 306.592L189.723 357.175Z" fill="#5185DC" stroke="white"/>
<path d="M353.593 284.937C366.815 260.832 373.787 233.382 373.787 205.425H324.931C324.931 224.063 320.284 242.363 311.469 258.433L353.593 284.937Z" fill="#5185DC" stroke="white"/>
<path d="M341.768 107.496L371.139 82.3857" stroke="#5185DC"/>
<path d="M374.82 61.3888C375.178 61.3916 375.536 61.4598 375.894 61.5933C376.252 61.7268 376.579 61.9484 376.874 62.2581C377.17 62.5649 377.407 62.9839 377.586 63.5152C377.765 64.0464 377.855 64.7126 377.855 65.5138C377.855 66.2893 377.781 66.9782 377.633 67.5805C377.488 68.18 377.278 68.6856 377.002 69.0976C376.73 69.5095 376.397 69.822 376.005 70.0351C375.616 70.2481 375.176 70.3547 374.684 70.3547C374.195 70.3547 373.759 70.2581 373.376 70.0649C372.995 69.8689 372.683 69.5976 372.438 69.251C372.197 68.9015 372.042 68.4967 371.974 68.0365H373.014C373.107 68.4371 373.294 68.768 373.572 69.0294C373.853 69.2879 374.224 69.4172 374.684 69.4172C375.357 69.4172 375.889 69.1231 376.278 68.5351C376.67 67.947 376.866 67.116 376.866 66.0422H376.798C376.639 66.2808 376.45 66.4868 376.231 66.6601C376.012 66.8334 375.769 66.9669 375.502 67.0606C375.235 67.1544 374.951 67.2013 374.65 67.2013C374.15 67.2013 373.691 67.0777 373.274 66.8305C372.859 66.5805 372.526 66.2382 372.276 65.8035C372.029 65.366 371.906 64.866 371.906 64.3035C371.906 63.7694 372.025 63.2808 372.264 62.8376C372.505 62.3916 372.843 62.0365 373.278 61.7723C373.715 61.5081 374.23 61.3802 374.82 61.3888ZM374.82 62.3263C374.463 62.3263 374.14 62.4157 373.853 62.5947C373.569 62.7709 373.343 63.0095 373.176 63.3106C373.011 63.6089 372.928 63.9399 372.928 64.3035C372.928 64.6672 373.008 64.9981 373.167 65.2964C373.329 65.5919 373.549 65.8277 373.828 66.0038C374.109 66.1771 374.428 66.2638 374.786 66.2638C375.056 66.2638 375.308 66.2112 375.541 66.1061C375.774 65.9981 375.977 65.8518 376.15 65.6672C376.326 65.4797 376.464 65.268 376.563 65.0322C376.663 64.7936 376.713 64.545 376.713 64.2865C376.713 63.9456 376.63 63.626 376.465 63.3277C376.303 63.0294 376.079 62.7879 375.792 62.6032C375.508 62.4186 375.184 62.3263 374.82 62.3263ZM382.479 70.3547C381.917 70.3547 381.415 70.2581 380.975 70.0649C380.537 69.8717 380.189 69.6032 379.931 69.2595C379.675 68.9129 379.536 68.5109 379.513 68.0535H380.587C380.61 68.3348 380.706 68.5777 380.877 68.7822C381.047 68.9839 381.27 69.1402 381.546 69.251C381.822 69.3618 382.127 69.4172 382.462 69.4172C382.837 69.4172 383.17 69.3518 383.459 69.2211C383.749 69.0905 383.976 68.9086 384.141 68.6757C384.306 68.4427 384.388 68.1729 384.388 67.866C384.388 67.545 384.309 67.2623 384.15 67.018C383.991 66.7709 383.758 66.5777 383.451 66.4385C383.144 66.2993 382.769 66.2297 382.326 66.2297H381.627V65.2922H382.326C382.672 65.2922 382.976 65.2297 383.238 65.1047C383.502 64.9797 383.708 64.8035 383.856 64.5763C384.006 64.349 384.081 64.0819 384.081 63.7751C384.081 63.4797 384.016 63.2226 383.885 63.0038C383.755 62.7851 383.57 62.6146 383.331 62.4925C383.096 62.3703 382.817 62.3092 382.496 62.3092C382.195 62.3092 381.911 62.3646 381.644 62.4754C381.38 62.5834 381.164 62.741 380.996 62.9484C380.829 63.153 380.738 63.4001 380.724 63.6899H379.701C379.718 63.2325 379.856 62.8319 380.114 62.4882C380.373 62.1416 380.711 61.8717 381.128 61.6785C381.549 61.4854 382.01 61.3888 382.513 61.3888C383.053 61.3888 383.516 61.4981 383.903 61.7169C384.289 61.9328 384.586 62.2183 384.793 62.5734C385.001 62.9285 385.104 63.3121 385.104 63.724C385.104 64.2155 384.975 64.6345 384.716 64.9811C384.461 65.3277 384.113 65.5677 383.672 65.7013V65.7694C384.224 65.8604 384.654 66.0947 384.964 66.4726C385.273 66.8476 385.428 67.3121 385.428 67.866C385.428 68.3405 385.299 68.7666 385.04 69.1444C384.785 69.5194 384.435 69.8149 383.992 70.0308C383.549 70.2467 383.045 70.3547 382.479 70.3547ZM390.069 70.3547C389.711 70.349 389.353 70.2808 388.995 70.1501C388.637 70.0194 388.31 69.7993 388.015 69.4896C387.719 69.1771 387.482 68.7552 387.303 68.224C387.124 67.6899 387.035 67.0194 387.035 66.2126C387.035 65.4399 387.107 64.7552 387.252 64.1586C387.397 63.5592 387.607 63.055 387.883 62.6459C388.158 62.2339 388.491 61.9214 388.88 61.7084C389.272 61.4953 389.714 61.3888 390.205 61.3888C390.694 61.3888 391.128 61.4868 391.509 61.6828C391.893 61.876 392.205 62.1459 392.447 62.4925C392.688 62.839 392.844 63.2382 392.915 63.6899H391.876C391.779 63.2979 391.591 62.9726 391.313 62.714C391.035 62.4555 390.665 62.3263 390.205 62.3263C389.529 62.3263 388.996 62.6203 388.607 63.2084C388.221 63.7964 388.026 64.6217 388.023 65.6842H388.091C388.251 65.4427 388.439 65.2368 388.658 65.0663C388.88 64.893 389.124 64.7595 389.391 64.6657C389.658 64.572 389.941 64.5251 390.239 64.5251C390.739 64.5251 391.197 64.6501 391.611 64.9001C392.026 65.1473 392.358 65.4896 392.608 65.9271C392.858 66.3618 392.983 66.8604 392.983 67.4229C392.983 67.9626 392.863 68.4569 392.621 68.9058C392.38 69.3518 392.04 69.7069 391.603 69.9711C391.168 70.2325 390.657 70.3604 390.069 70.3547ZM390.069 69.4172C390.427 69.4172 390.748 69.3277 391.032 69.1487C391.319 68.9697 391.545 68.7297 391.709 68.4285C391.877 68.1274 391.961 67.7922 391.961 67.4229C391.961 67.0621 391.88 66.7339 391.718 66.4385C391.559 66.1402 391.339 65.903 391.057 65.7268C390.779 65.5507 390.461 65.4626 390.103 65.4626C389.833 65.4626 389.581 65.5166 389.349 65.6246C389.116 65.7297 388.911 65.8746 388.735 66.0592C388.562 66.2439 388.425 66.4555 388.326 66.6942C388.226 66.93 388.177 67.1785 388.177 67.4399C388.177 67.7865 388.258 68.1104 388.42 68.4115C388.584 68.7126 388.809 68.9555 389.093 69.1402C389.38 69.3248 389.705 69.4172 390.069 69.4172Z" fill="#5185DC"/>
<path d="M169.299 61.2284L154.447 24.2549" stroke="#5185DC"/>
<path d="M136.712 12.2238C136.127 12.2238 135.61 12.1201 135.161 11.9127C134.715 11.7025 134.367 11.4142 134.117 11.0477C133.867 10.6784 133.743 10.2579 133.746 9.78631C133.743 9.41699 133.816 9.07608 133.963 8.76358C134.111 8.44824 134.313 8.18546 134.568 7.97523C134.827 7.76216 135.115 7.62722 135.434 7.5704V7.51926C135.016 7.41131 134.684 7.17694 134.436 6.81614C134.189 6.4525 134.067 6.03915 134.07 5.57608C134.067 5.1329 134.179 4.73659 134.407 4.38716C134.634 4.03773 134.946 3.76216 135.344 3.56046C135.745 3.35875 136.201 3.2579 136.712 3.2579C137.218 3.2579 137.669 3.35875 138.067 3.56046C138.465 3.76216 138.777 4.03773 139.005 4.38716C139.235 4.73659 139.351 5.1329 139.354 5.57608C139.351 6.03915 139.225 6.4525 138.975 6.81614C138.728 7.17694 138.399 7.41131 137.99 7.51926V7.5704C138.306 7.62722 138.59 7.76216 138.843 7.97523C139.095 8.18546 139.297 8.44824 139.448 8.76358C139.598 9.07608 139.675 9.41699 139.678 9.78631C139.675 10.2579 139.547 10.6784 139.294 11.0477C139.044 11.4142 138.696 11.7025 138.25 11.9127C137.807 12.1201 137.294 12.2238 136.712 12.2238ZM136.712 11.2863C137.107 11.2863 137.448 11.2224 137.735 11.0945C138.022 10.9667 138.243 10.7863 138.399 10.5534C138.556 10.3204 138.635 10.0477 138.638 9.73517C138.635 9.40563 138.55 9.11444 138.382 8.86159C138.215 8.60875 137.986 8.40989 137.696 8.265C137.409 8.12012 137.081 8.04767 136.712 8.04767C136.34 8.04767 136.007 8.12012 135.715 8.265C135.425 8.40989 135.196 8.60875 135.029 8.86159C134.864 9.11444 134.783 9.40563 134.786 9.73517C134.783 10.0477 134.858 10.3204 135.012 10.5534C135.168 10.7863 135.391 10.9667 135.681 11.0945C135.97 11.2224 136.314 11.2863 136.712 11.2863ZM136.712 7.14426C137.024 7.14426 137.301 7.08176 137.543 6.95676C137.787 6.83176 137.979 6.65705 138.118 6.43262C138.257 6.20819 138.328 5.9454 138.331 5.64426C138.328 5.34881 138.259 5.09171 138.122 4.87296C137.986 4.65137 137.797 4.48091 137.556 4.36159C137.314 4.23944 137.033 4.17836 136.712 4.17836C136.385 4.17836 136.1 4.23944 135.855 4.36159C135.611 4.48091 135.422 4.65137 135.289 4.87296C135.155 5.09171 135.09 5.34881 135.093 5.64426C135.09 5.9454 135.157 6.20819 135.293 6.43262C135.432 6.65705 135.624 6.83176 135.868 6.95676C136.112 7.08176 136.394 7.14426 136.712 7.14426ZM141.584 12.1045L145.487 4.3829V4.31472H140.987V3.37722H146.578V4.36586L142.692 12.1045H141.584ZM150.777 12.2238C150.277 12.2238 149.826 12.1244 149.426 11.9255C149.025 11.7267 148.704 11.4539 148.463 11.1073C148.221 10.7607 148.089 10.3659 148.066 9.92267H149.089C149.129 10.3176 149.308 10.6443 149.626 10.9028C149.947 11.1585 150.331 11.2863 150.777 11.2863C151.135 11.2863 151.453 11.2025 151.731 11.0349C152.012 10.8673 152.233 10.6372 152.392 10.3445C152.554 10.0491 152.635 9.71529 152.635 9.34313C152.635 8.96245 152.551 8.62296 152.383 8.32466C152.218 8.02353 151.991 7.78631 151.701 7.61301C151.411 7.43972 151.081 7.35165 150.708 7.34881C150.441 7.34597 150.167 7.38716 149.886 7.47239C149.605 7.55478 149.373 7.66131 149.191 7.79199L148.203 7.67267L148.731 3.37722H153.265V4.31472H149.617L149.311 6.88858H149.362C149.541 6.74654 149.765 6.62864 150.035 6.53489C150.305 6.44114 150.586 6.39426 150.879 6.39426C151.413 6.39426 151.889 6.52211 152.306 6.77779C152.727 7.03063 153.056 7.37722 153.295 7.81756C153.536 8.2579 153.657 8.76074 153.657 9.32608C153.657 9.8829 153.532 10.3801 153.282 10.8176C153.035 11.2522 152.694 11.596 152.26 11.8488C151.825 12.0988 151.331 12.2238 150.777 12.2238Z" fill="#5185DC"/>
<path d="M80.7704 199.214L43.2188 197.621" stroke="#5185DC"/>
<path d="M24.7421 185.59C24.3841 185.584 24.0262 185.516 23.6682 185.385C23.3103 185.255 22.9836 185.035 22.6881 184.725C22.3926 184.412 22.1554 183.991 21.9765 183.459C21.7975 182.925 21.708 182.255 21.708 181.448C21.708 180.675 21.7804 179.991 21.9253 179.394C22.0702 178.795 22.2804 178.29 22.556 177.881C22.8316 177.469 23.164 177.157 23.5532 176.944C23.9452 176.731 24.387 176.624 24.8784 176.624C25.3671 176.624 25.8017 176.722 26.1824 176.918C26.5659 177.111 26.8784 177.381 27.1199 177.728C27.3614 178.074 27.5176 178.474 27.5887 178.925H26.5489C26.4523 178.533 26.2648 178.208 25.9864 177.949C25.708 177.691 25.3387 177.562 24.8784 177.562C24.2023 177.562 23.6696 177.856 23.2804 178.444C22.8941 179.032 22.6995 179.857 22.6966 180.92H22.7648C22.9239 180.678 23.1128 180.472 23.3316 180.302C23.5532 180.128 23.7975 179.995 24.0645 179.901C24.3316 179.807 24.6142 179.76 24.9125 179.76C25.4125 179.76 25.8699 179.885 26.2847 180.135C26.6995 180.383 27.0319 180.725 27.2819 181.162C27.5319 181.597 27.6569 182.096 27.6569 182.658C27.6569 183.198 27.5361 183.692 27.2946 184.141C27.0532 184.587 26.7137 184.942 26.2762 185.206C25.8415 185.468 25.3301 185.596 24.7421 185.59ZM24.7421 184.653C25.1 184.653 25.4211 184.563 25.7051 184.384C25.9921 184.205 26.2179 183.965 26.3827 183.664C26.5503 183.363 26.6341 183.028 26.6341 182.658C26.6341 182.297 26.5532 181.969 26.3912 181.674C26.2321 181.376 26.012 181.138 25.7307 180.962C25.4523 180.786 25.1341 180.698 24.7762 180.698C24.5063 180.698 24.2549 180.752 24.0219 180.86C23.789 180.965 23.5844 181.11 23.4083 181.295C23.235 181.479 23.0986 181.691 22.9992 181.93C22.8998 182.165 22.85 182.414 22.85 182.675C22.85 183.022 22.931 183.346 23.0929 183.647C23.2577 183.948 23.4821 184.191 23.7662 184.376C24.0532 184.56 24.3784 184.653 24.7421 184.653ZM32.1281 185.59C31.5429 185.59 31.0258 185.486 30.577 185.279C30.1309 185.069 29.7829 184.78 29.5329 184.414C29.2829 184.045 29.1593 183.624 29.1622 183.153C29.1593 182.783 29.2318 182.442 29.3795 182.13C29.5272 181.814 29.7289 181.552 29.9846 181.341C30.2431 181.128 30.5315 180.993 30.8497 180.937V180.885C30.4321 180.778 30.0997 180.543 29.8525 180.182C29.6054 179.819 29.4832 179.405 29.486 178.942C29.4832 178.499 29.5954 178.103 29.8227 177.753C30.05 177.404 30.3625 177.128 30.7602 176.927C31.1608 176.725 31.6167 176.624 32.1281 176.624C32.6338 176.624 33.0855 176.725 33.4832 176.927C33.8809 177.128 34.1934 177.404 34.4207 177.753C34.6508 178.103 34.7673 178.499 34.7701 178.942C34.7673 179.405 34.6409 179.819 34.3909 180.182C34.1437 180.543 33.8156 180.778 33.4065 180.885V180.937C33.7218 180.993 34.0059 181.128 34.2588 181.341C34.5116 181.552 34.7133 181.814 34.8639 182.13C35.0145 182.442 35.0912 182.783 35.094 183.153C35.0912 183.624 34.9633 184.045 34.7105 184.414C34.4605 184.78 34.1125 185.069 33.6664 185.279C33.2233 185.486 32.7105 185.59 32.1281 185.59ZM32.1281 184.653C32.523 184.653 32.8639 184.589 33.1508 184.461C33.4377 184.333 33.6593 184.153 33.8156 183.92C33.9718 183.687 34.0514 183.414 34.0542 183.101C34.0514 182.772 33.9662 182.481 33.7985 182.228C33.6309 181.975 33.4022 181.776 33.1125 181.631C32.8255 181.486 32.4974 181.414 32.1281 181.414C31.7559 181.414 31.4235 181.486 31.1309 181.631C30.8412 181.776 30.6125 181.975 30.4449 182.228C30.2801 182.481 30.1991 182.772 30.202 183.101C30.1991 183.414 30.2744 183.687 30.4278 183.92C30.5841 184.153 30.8071 184.333 31.0968 184.461C31.3866 184.589 31.7304 184.653 32.1281 184.653ZM32.1281 180.51C32.4406 180.51 32.7176 180.448 32.9591 180.323C33.2034 180.198 33.3951 180.023 33.5343 179.799C33.6735 179.574 33.7446 179.312 33.7474 179.01C33.7446 178.715 33.675 178.458 33.5386 178.239C33.4022 178.018 33.2133 177.847 32.9718 177.728C32.7304 177.606 32.4491 177.545 32.1281 177.545C31.8014 177.545 31.5159 177.606 31.2716 177.728C31.0272 177.847 30.8383 178.018 30.7048 178.239C30.5713 178.458 30.5059 178.715 30.5088 179.01C30.5059 179.312 30.5727 179.574 30.7091 179.799C30.8483 180.023 31.04 180.198 31.2843 180.323C31.5287 180.448 31.8099 180.51 32.1281 180.51ZM39.5226 185.59C38.9374 185.59 38.4203 185.486 37.9715 185.279C37.5255 185.069 37.1775 184.78 36.9275 184.414C36.6775 184.045 36.5539 183.624 36.5567 183.153C36.5539 182.783 36.6263 182.442 36.774 182.13C36.9218 181.814 37.1235 181.552 37.3792 181.341C37.6377 181.128 37.926 180.993 38.2442 180.937V180.885C37.8266 180.778 37.4942 180.543 37.2471 180.182C36.9999 179.819 36.8777 179.405 36.8806 178.942C36.8777 178.499 36.99 178.103 37.2172 177.753C37.4445 177.404 37.757 177.128 38.1547 176.927C38.5553 176.725 39.0113 176.624 39.5226 176.624C40.0283 176.624 40.48 176.725 40.8777 176.927C41.2755 177.128 41.588 177.404 41.8152 177.753C42.0453 178.103 42.1618 178.499 42.1647 178.942C42.1618 179.405 42.0354 179.819 41.7854 180.182C41.5382 180.543 41.2101 180.778 40.801 180.885V180.937C41.1164 180.993 41.4005 181.128 41.6533 181.341C41.9061 181.552 42.1078 181.814 42.2584 182.13C42.409 182.442 42.4857 182.783 42.4885 183.153C42.4857 183.624 42.3578 184.045 42.105 184.414C41.855 184.78 41.507 185.069 41.061 185.279C40.6178 185.486 40.105 185.59 39.5226 185.59ZM39.5226 184.653C39.9175 184.653 40.2584 184.589 40.5453 184.461C40.8323 184.333 41.0539 184.153 41.2101 183.92C41.3664 183.687 41.4459 183.414 41.4488 183.101C41.4459 182.772 41.3607 182.481 41.1931 182.228C41.0255 181.975 40.7968 181.776 40.507 181.631C40.2201 181.486 39.8919 181.414 39.5226 181.414C39.1505 181.414 38.8181 181.486 38.5255 181.631C38.2357 181.776 38.007 181.975 37.8394 182.228C37.6746 182.481 37.5936 182.772 37.5965 183.101C37.5936 183.414 37.6689 183.687 37.8223 183.92C37.9786 184.153 38.2016 184.333 38.4914 184.461C38.7811 184.589 39.1249 184.653 39.5226 184.653ZM39.5226 180.51C39.8351 180.51 40.1121 180.448 40.3536 180.323C40.5979 180.198 40.7897 180.023 40.9289 179.799C41.0681 179.574 41.1391 179.312 41.1419 179.01C41.1391 178.715 41.0695 178.458 40.9331 178.239C40.7968 178.018 40.6078 177.847 40.3664 177.728C40.1249 177.606 39.8436 177.545 39.5226 177.545C39.1959 177.545 38.9104 177.606 38.6661 177.728C38.4218 177.847 38.2328 178.018 38.0993 178.239C37.9658 178.458 37.9005 178.715 37.9033 179.01C37.9005 179.312 37.9672 179.574 38.1036 179.799C38.2428 180.023 38.4346 180.198 38.6789 180.323C38.9232 180.448 39.2044 180.51 39.5226 180.51Z" fill="#5185DC"/>
<path d="M134.27 326.792L110.436 357.912" stroke="#5185DC"/>
<path d="M91.9759 345.88C91.4759 345.88 91.0256 345.781 90.6251 345.582C90.2245 345.383 89.9035 345.11 89.662 344.764C89.4205 344.417 89.2884 344.022 89.2657 343.579H90.2884C90.3282 343.974 90.5072 344.301 90.8254 344.559C91.1464 344.815 91.5299 344.943 91.9759 344.943C92.3339 344.943 92.6521 344.859 92.9305 344.691C93.2117 344.524 93.4319 344.293 93.591 344.001C93.7529 343.705 93.8339 343.372 93.8339 342.999C93.8339 342.619 93.7501 342.279 93.5825 341.981C93.4177 341.68 93.1904 341.443 92.9006 341.269C92.6109 341.096 92.2799 341.008 91.9077 341.005C91.6407 341.002 91.3665 341.043 91.0853 341.129C90.804 341.211 90.5725 341.318 90.3907 341.448L89.4021 341.329L89.9305 337.033H94.4646V337.971H90.8168L90.51 340.545H90.5612C90.7401 340.403 90.9646 340.285 91.2344 340.191C91.5043 340.097 91.7856 340.051 92.0782 340.051C92.6123 340.051 93.0881 340.178 93.5058 340.434C93.9262 340.687 94.2558 341.033 94.4944 341.474C94.7359 341.914 94.8566 342.417 94.8566 342.982C94.8566 343.539 94.7316 344.036 94.4816 344.474C94.2344 344.908 93.8935 345.252 93.4589 345.505C93.0242 345.755 92.5299 345.88 91.9759 345.88ZM99.3278 336.914C99.6858 336.917 100.044 336.985 100.402 337.119C100.76 337.252 101.086 337.474 101.382 337.783C101.677 338.09 101.914 338.509 102.093 339.041C102.272 339.572 102.362 340.238 102.362 341.039C102.362 341.815 102.288 342.504 102.14 343.106C101.995 343.705 101.785 344.211 101.51 344.623C101.237 345.035 100.905 345.347 100.513 345.56C100.123 345.774 99.683 345.88 99.1915 345.88C98.7028 345.88 98.2668 345.783 97.8832 345.59C97.5026 345.394 97.1901 345.123 96.9457 344.776C96.7043 344.427 96.5494 344.022 96.4813 343.562H97.521C97.6148 343.962 97.8009 344.293 98.0793 344.555C98.3605 344.813 98.7313 344.943 99.1915 344.943C99.8648 344.943 100.396 344.649 100.785 344.06C101.177 343.472 101.373 342.641 101.373 341.568H101.305C101.146 341.806 100.957 342.012 100.738 342.185C100.52 342.359 100.277 342.492 100.01 342.586C99.7426 342.68 99.4585 342.727 99.1574 342.727C98.6574 342.727 98.1986 342.603 97.781 342.356C97.3662 342.106 97.0338 341.764 96.7838 341.329C96.5366 340.891 96.4131 340.391 96.4131 339.829C96.4131 339.295 96.5324 338.806 96.771 338.363C97.0125 337.917 97.3506 337.562 97.7852 337.298C98.2227 337.033 98.7369 336.906 99.3278 336.914ZM99.3278 337.852C98.9699 337.852 98.6474 337.941 98.3605 338.12C98.0764 338.296 97.8506 338.535 97.683 338.836C97.5182 339.134 97.4358 339.465 97.4358 339.829C97.4358 340.193 97.5153 340.524 97.6744 340.822C97.8364 341.117 98.0565 341.353 98.3349 341.529C98.6162 341.703 98.9358 341.789 99.2938 341.789C99.5636 341.789 99.8151 341.737 100.048 341.631C100.281 341.524 100.484 341.377 100.657 341.193C100.834 341.005 100.971 340.793 101.071 340.558C101.17 340.319 101.22 340.07 101.22 339.812C101.22 339.471 101.138 339.151 100.973 338.853C100.811 338.555 100.586 338.313 100.299 338.129C100.015 337.944 99.6915 337.852 99.3278 337.852ZM106.765 345.88C106.265 345.88 105.815 345.781 105.414 345.582C105.014 345.383 104.693 345.11 104.451 344.764C104.21 344.417 104.077 344.022 104.055 343.579H105.077C105.117 343.974 105.296 344.301 105.614 344.559C105.935 344.815 106.319 344.943 106.765 344.943C107.123 344.943 107.441 344.859 107.72 344.691C108.001 344.524 108.221 344.293 108.38 344.001C108.542 343.705 108.623 343.372 108.623 342.999C108.623 342.619 108.539 342.279 108.372 341.981C108.207 341.68 107.979 341.443 107.69 341.269C107.4 341.096 107.069 341.008 106.697 341.005C106.43 341.002 106.156 341.043 105.874 341.129C105.593 341.211 105.362 341.318 105.18 341.448L104.191 341.329L104.72 337.033H109.254V337.971H105.606L105.299 340.545H105.35C105.529 340.403 105.754 340.285 106.024 340.191C106.293 340.097 106.575 340.051 106.867 340.051C107.401 340.051 107.877 340.178 108.295 340.434C108.715 340.687 109.045 341.033 109.283 341.474C109.525 341.914 109.646 342.417 109.646 342.982C109.646 343.539 109.521 344.036 109.271 344.474C109.024 344.908 108.683 345.252 108.248 345.505C107.813 345.755 107.319 345.88 106.765 345.88Z" fill="#5185DC"/>
<path d="M283.008 350.586L297.311 387.807" stroke="#5185DC"/>
<path d="M300.992 366.811C301.35 366.813 301.708 366.882 302.066 367.015C302.424 367.149 302.751 367.37 303.046 367.68C303.342 367.987 303.579 368.406 303.758 368.937C303.937 369.468 304.026 370.134 304.026 370.936C304.026 371.711 303.953 372.4 303.805 373.002C303.66 373.602 303.45 374.108 303.174 374.519C302.901 374.931 302.569 375.244 302.177 375.457C301.788 375.67 301.347 375.777 300.856 375.777C300.367 375.777 299.931 375.68 299.548 375.487C299.167 375.291 298.855 375.019 298.61 374.673C298.369 374.323 298.214 373.919 298.146 373.458H299.186C299.279 373.859 299.465 374.19 299.744 374.451C300.025 374.71 300.396 374.839 300.856 374.839C301.529 374.839 302.061 374.545 302.45 373.957C302.842 373.369 303.038 372.538 303.038 371.464H302.97C302.811 371.703 302.622 371.909 302.403 372.082C302.184 372.255 301.941 372.389 301.674 372.483C301.407 372.576 301.123 372.623 300.822 372.623C300.322 372.623 299.863 372.5 299.445 372.252C299.031 372.002 298.698 371.66 298.448 371.225C298.201 370.788 298.078 370.288 298.078 369.725C298.078 369.191 298.197 368.703 298.436 368.259C298.677 367.813 299.015 367.458 299.45 367.194C299.887 366.93 300.401 366.802 300.992 366.811ZM300.992 367.748C300.634 367.748 300.312 367.838 300.025 368.017C299.741 368.193 299.515 368.431 299.347 368.733C299.183 369.031 299.1 369.362 299.1 369.725C299.1 370.089 299.18 370.42 299.339 370.718C299.501 371.014 299.721 371.25 299.999 371.426C300.281 371.599 300.6 371.686 300.958 371.686C301.228 371.686 301.48 371.633 301.713 371.528C301.945 371.42 302.149 371.274 302.322 371.089C302.498 370.902 302.636 370.69 302.735 370.454C302.835 370.215 302.884 369.967 302.884 369.708C302.884 369.367 302.802 369.048 302.637 368.75C302.475 368.451 302.251 368.21 301.964 368.025C301.68 367.84 301.356 367.748 300.992 367.748ZM308.549 375.777C307.907 375.777 307.36 375.602 306.908 375.252C306.456 374.9 306.111 374.39 305.873 373.723C305.634 373.052 305.515 372.242 305.515 371.294C305.515 370.35 305.634 369.545 305.873 368.877C306.114 368.207 306.461 367.696 306.912 367.343C307.367 366.988 307.912 366.811 308.549 366.811C309.185 366.811 309.729 366.988 310.181 367.343C310.635 367.696 310.982 368.207 311.221 368.877C311.462 369.545 311.583 370.35 311.583 371.294C311.583 372.242 311.464 373.052 311.225 373.723C310.986 374.39 310.641 374.9 310.189 375.252C309.738 375.602 309.191 375.777 308.549 375.777ZM308.549 374.839C309.185 374.839 309.68 374.532 310.032 373.919C310.384 373.305 310.56 372.43 310.56 371.294C310.56 370.538 310.479 369.894 310.317 369.363C310.158 368.832 309.928 368.427 309.627 368.149C309.329 367.87 308.969 367.731 308.549 367.731C307.918 367.731 307.425 368.042 307.07 368.664C306.715 369.284 306.537 370.16 306.537 371.294C306.537 372.049 306.617 372.691 306.776 373.22C306.935 373.748 307.164 374.15 307.462 374.426C307.763 374.701 308.126 374.839 308.549 374.839ZM313.202 375.657V374.89L316.083 371.737C316.421 371.367 316.699 371.046 316.918 370.774C317.137 370.498 317.299 370.24 317.404 369.998C317.512 369.754 317.566 369.498 317.566 369.231C317.566 368.924 317.492 368.659 317.344 368.434C317.199 368.21 317.001 368.036 316.748 367.914C316.495 367.792 316.211 367.731 315.895 367.731C315.56 367.731 315.268 367.801 315.018 367.94C314.77 368.076 314.579 368.268 314.442 368.515C314.309 368.762 314.242 369.052 314.242 369.384H313.236C313.236 368.873 313.354 368.424 313.59 368.038C313.826 367.652 314.147 367.35 314.553 367.134C314.962 366.919 315.421 366.811 315.93 366.811C316.441 366.811 316.894 366.919 317.289 367.134C317.684 367.35 317.993 367.642 318.218 368.008C318.442 368.375 318.555 368.782 318.555 369.231C318.555 369.552 318.496 369.866 318.38 370.173C318.266 370.477 318.067 370.816 317.783 371.191C317.502 371.563 317.111 372.018 316.611 372.555L314.651 374.652V374.72H318.708V375.657H313.202Z" fill="#5185DC"/>
<path d="M368.65 246.626L404.914 257.19" stroke="#5185DC"/>
<path d="M408.766 245.159C408.204 245.159 407.702 245.063 407.262 244.87C406.825 244.676 406.477 244.408 406.218 244.064C405.962 243.718 405.823 243.316 405.8 242.858H406.874C406.897 243.139 406.994 243.382 407.164 243.587C407.335 243.789 407.558 243.945 407.833 244.056C408.109 244.166 408.414 244.222 408.749 244.222C409.124 244.222 409.457 244.157 409.746 244.026C410.036 243.895 410.263 243.713 410.428 243.48C410.593 243.247 410.675 242.978 410.675 242.671C410.675 242.35 410.596 242.067 410.437 241.823C410.278 241.576 410.045 241.382 409.738 241.243C409.431 241.104 409.056 241.034 408.613 241.034H407.914V240.097H408.613C408.96 240.097 409.263 240.034 409.525 239.909C409.789 239.784 409.995 239.608 410.143 239.381C410.293 239.154 410.369 238.887 410.369 238.58C410.369 238.284 410.303 238.027 410.173 237.809C410.042 237.59 409.857 237.419 409.619 237.297C409.383 237.175 409.104 237.114 408.783 237.114C408.482 237.114 408.198 237.169 407.931 237.28C407.667 237.388 407.451 237.546 407.283 237.753C407.116 237.958 407.025 238.205 407.011 238.495H405.988C406.005 238.037 406.143 237.637 406.401 237.293C406.66 236.946 406.998 236.676 407.415 236.483C407.836 236.29 408.298 236.193 408.8 236.193C409.34 236.193 409.803 236.303 410.19 236.522C410.576 236.737 410.873 237.023 411.08 237.378C411.288 237.733 411.391 238.117 411.391 238.529C411.391 239.02 411.262 239.439 411.004 239.786C410.748 240.132 410.4 240.372 409.96 240.506V240.574C410.511 240.665 410.941 240.899 411.251 241.277C411.56 241.652 411.715 242.117 411.715 242.671C411.715 243.145 411.586 243.571 411.327 243.949C411.072 244.324 410.722 244.62 410.279 244.835C409.836 245.051 409.332 245.159 408.766 245.159ZM416.356 245.159C415.998 245.154 415.64 245.085 415.282 244.955C414.924 244.824 414.597 244.604 414.302 244.294C414.006 243.982 413.769 243.56 413.59 243.029C413.411 242.495 413.322 241.824 413.322 241.017C413.322 240.245 413.394 239.56 413.539 238.963C413.684 238.364 413.894 237.86 414.17 237.451C414.445 237.039 414.778 236.726 415.167 236.513C415.559 236.3 416.001 236.193 416.492 236.193C416.981 236.193 417.415 236.291 417.796 236.487C418.18 236.681 418.492 236.951 418.734 237.297C418.975 237.644 419.131 238.043 419.202 238.495H418.163C418.066 238.103 417.879 237.777 417.6 237.519C417.322 237.26 416.952 237.131 416.492 237.131C415.816 237.131 415.283 237.425 414.894 238.013C414.508 238.601 414.313 239.426 414.31 240.489H414.379C414.538 240.247 414.727 240.041 414.945 239.871C415.167 239.698 415.411 239.564 415.678 239.47C415.945 239.377 416.228 239.33 416.526 239.33C417.026 239.33 417.484 239.455 417.898 239.705C418.313 239.952 418.646 240.294 418.896 240.732C419.146 241.166 419.271 241.665 419.271 242.228C419.271 242.767 419.15 243.262 418.908 243.71C418.667 244.157 418.327 244.512 417.89 244.776C417.455 245.037 416.944 245.165 416.356 245.159ZM416.356 244.222C416.714 244.222 417.035 244.132 417.319 243.953C417.606 243.774 417.832 243.534 417.996 243.233C418.164 242.932 418.248 242.597 418.248 242.228C418.248 241.867 418.167 241.539 418.005 241.243C417.846 240.945 417.626 240.708 417.344 240.532C417.066 240.355 416.748 240.267 416.39 240.267C416.12 240.267 415.869 240.321 415.636 240.429C415.403 240.534 415.198 240.679 415.022 240.864C414.849 241.049 414.712 241.26 414.613 241.499C414.513 241.735 414.464 241.983 414.464 242.245C414.464 242.591 414.545 242.915 414.707 243.216C414.871 243.517 415.096 243.76 415.38 243.945C415.667 244.13 415.992 244.222 416.356 244.222ZM423.725 236.193C424.083 236.196 424.441 236.264 424.799 236.398C425.157 236.532 425.483 236.753 425.779 237.063C426.074 237.37 426.311 237.789 426.49 238.32C426.669 238.851 426.759 239.517 426.759 240.318C426.759 241.094 426.685 241.783 426.537 242.385C426.392 242.985 426.182 243.49 425.907 243.902C425.634 244.314 425.301 244.627 424.909 244.84C424.52 245.053 424.08 245.159 423.588 245.159C423.1 245.159 422.664 245.063 422.28 244.87C421.9 244.674 421.587 244.402 421.343 244.056C421.101 243.706 420.946 243.301 420.878 242.841H421.918C422.012 243.242 422.198 243.573 422.476 243.834C422.757 244.093 423.128 244.222 423.588 244.222C424.262 244.222 424.793 243.928 425.182 243.34C425.574 242.752 425.77 241.921 425.77 240.847H425.702C425.543 241.085 425.354 241.291 425.135 241.465C424.917 241.638 424.674 241.772 424.407 241.865C424.14 241.959 423.855 242.006 423.554 242.006C423.054 242.006 422.596 241.882 422.178 241.635C421.763 241.385 421.431 241.043 421.181 240.608C420.934 240.171 420.81 239.671 420.81 239.108C420.81 238.574 420.929 238.085 421.168 237.642C421.409 237.196 421.748 236.841 422.182 236.577C422.62 236.313 423.134 236.185 423.725 236.193ZM423.725 237.131C423.367 237.131 423.044 237.22 422.757 237.399C422.473 237.576 422.248 237.814 422.08 238.115C421.915 238.414 421.833 238.745 421.833 239.108C421.833 239.472 421.912 239.803 422.071 240.101C422.233 240.397 422.453 240.632 422.732 240.809C423.013 240.982 423.333 241.068 423.691 241.068C423.961 241.068 424.212 241.016 424.445 240.911C424.678 240.803 424.881 240.657 425.054 240.472C425.23 240.284 425.368 240.073 425.468 239.837C425.567 239.598 425.617 239.35 425.617 239.091C425.617 238.75 425.534 238.431 425.37 238.132C425.208 237.834 424.983 237.593 424.696 237.408C424.412 237.223 424.088 237.131 423.725 237.131Z" fill="#5185DC"/>
</svg>
