<svg width="474" height="433" viewBox="0 0 474 433" fill="none" xmlns="http://www.w3.org/2000/svg">
<path fill-rule="evenodd" clip-rule="evenodd" d="M231.32 4.65788C219.814 4.65788 210.487 13.9853 210.487 25.4912C210.487 36.9971 219.814 46.3245 231.32 46.3245C242.826 46.3245 252.154 36.9971 252.154 25.4912C252.154 13.9853 242.826 4.65788 231.32 4.65788ZM206.32 25.4912C206.32 11.6841 217.513 0.491211 231.32 0.491211C245.127 0.491211 256.32 11.6841 256.32 25.4912C256.32 39.2983 245.127 50.4912 231.32 50.4912C217.513 50.4912 206.32 39.2983 206.32 25.4912Z" fill="black"/>
<path fill-rule="evenodd" clip-rule="evenodd" d="M226.302 47.8575C226.101 47.5974 226.101 45.2801 226.302 40.9058C224.144 40.9804 222.78 40.8306 222.212 40.4565C221.358 39.8954 220.504 38.1649 219.746 36.9453C218.988 35.7257 217.305 35.5329 216.626 35.2603C215.946 34.9876 215.776 33.8762 218.498 34.7167C221.22 35.5573 221.353 37.8461 222.212 38.3813C223.07 38.9165 225.123 38.6824 226.054 38.2536C226.984 37.8249 226.916 36.2285 227.082 35.5961C227.292 35.0058 226.552 34.8749 226.536 34.8701C225.627 34.8701 220.855 33.8322 219.544 29.2106C218.233 24.5891 219.922 21.5684 220.823 20.2699C221.423 19.4041 221.37 17.5591 220.663 14.7347C223.229 14.4067 225.21 15.2145 226.604 17.158C226.606 17.1691 228.433 16.0716 231.32 16.0716C234.207 16.0716 235.231 16.9656 236.022 17.158C236.812 17.3504 237.445 13.7559 242.327 14.7347C241.307 16.738 240.454 19.2413 241.105 20.2699C241.757 21.2984 244.314 24.569 242.743 29.2106C241.696 32.3051 239.638 34.1915 236.568 34.8701C236.216 34.9824 236.04 35.1636 236.04 35.4136C236.04 35.7887 236.516 35.8297 237.201 37.5867C237.658 38.7581 237.691 42.1037 237.3 47.6235C236.31 47.8757 235.539 48.045 234.988 48.1315C234.012 48.285 232.952 48.371 231.91 48.4042C230.868 48.4375 230.507 48.4337 229.066 48.2997C228.106 48.2103 227.185 48.0629 226.302 47.8575Z" fill="black"/>
<path d="M258.299 379.952H270.295V392.221H276.367C279.204 392.208 282.02 391.737 284.706 390.825C286.117 390.356 287.476 389.742 288.76 388.993C287.117 386.72 286.142 384.032 285.944 381.233C285.442 377.15 286.493 373.027 288.889 369.682L290.152 368.248L291.653 369.457C295.629 372.37 298.326 376.705 299.183 381.559C303.815 380.136 308.821 380.601 313.111 382.854L314.761 383.811L313.895 385.503C312.14 388.463 309.545 390.834 306.439 392.315C303.334 393.796 299.858 394.321 296.453 393.822C286.064 419.703 263.463 431.958 236.009 431.958C229.171 432.362 222.351 430.914 216.268 427.766C210.184 424.618 205.063 419.887 201.445 414.071L201.325 413.865L200.25 411.68C197.81 406.135 196.856 400.05 197.481 394.023L197.649 392.206H207.895V379.952H219.896V367.951H243.898V355.95H258.294L258.299 379.952Z" fill="#3A4E55"/>
<path d="M297.186 384.497C297.268 381.862 296.692 379.248 295.508 376.892C294.324 374.537 292.57 372.514 290.406 371.009C288.53 373.759 287.645 377.066 287.896 380.385C288.147 383.705 289.52 386.841 291.788 389.278C287.331 392.578 281.912 394.318 276.368 394.231H199.457C198.802 400.369 199.908 406.566 202.646 412.099L203.521 413.701C204.073 414.641 204.678 415.549 205.333 416.421C208.495 416.625 211.41 416.697 214.078 416.636C218.401 416.661 222.703 416.034 226.839 414.776C226.954 414.737 227.075 414.72 227.196 414.728C227.317 414.735 227.435 414.766 227.544 414.819C227.653 414.872 227.751 414.946 227.831 415.037C227.912 415.127 227.973 415.233 228.013 415.348C228.052 415.462 228.069 415.584 228.062 415.705C228.054 415.826 228.023 415.944 227.97 416.053C227.917 416.162 227.843 416.259 227.752 416.34C227.662 416.42 227.556 416.482 227.441 416.522C227.011 416.671 226.563 416.812 226.098 416.942C223.22 417.747 220.261 418.228 217.277 418.377C217.487 418.377 217.057 418.41 217.057 418.41L216.665 418.444C215.272 418.514 213.797 418.546 212.242 418.539C210.564 418.539 208.895 418.506 207.064 418.415L207.016 418.448C210.745 422.328 215.261 425.363 220.262 427.351C225.262 429.338 230.63 430.232 236.005 429.971C262.588 429.971 285.137 418.185 295.125 391.721C302.211 392.448 309.019 390.641 312.113 384.597C309.802 383.425 307.252 382.806 304.661 382.788C302.071 382.77 299.512 383.353 297.186 384.492" fill="#D80000"/>
<path d="M297.182 384.497C297.265 381.862 296.688 379.248 295.504 376.892C294.32 374.537 292.567 372.514 290.403 371.009C288.527 373.759 287.642 377.066 287.893 380.385C288.144 383.705 289.516 386.841 291.784 389.278C287.328 392.578 281.909 394.318 276.365 394.231H204.01C203.614 398.517 204.333 402.832 206.098 406.758C207.862 410.684 210.612 414.087 214.079 416.636C218.402 416.661 222.704 416.034 226.841 414.776C226.955 414.737 227.076 414.72 227.197 414.727C227.318 414.735 227.437 414.766 227.546 414.819C227.655 414.872 227.752 414.946 227.833 415.037C227.913 415.127 227.975 415.233 228.014 415.348C228.054 415.462 228.071 415.584 228.063 415.705C228.056 415.826 228.025 415.944 227.972 416.053C227.919 416.162 227.845 416.259 227.754 416.34C227.663 416.42 227.558 416.482 227.443 416.522C227.013 416.671 226.565 416.812 226.1 416.942C223.143 417.764 220.107 418.267 217.044 418.444L216.953 418.338C225.999 422.981 239.119 422.962 254.161 417.186C271.324 410.251 286.338 398.885 297.67 384.248L297.192 384.478" fill="#EA2828"/>
<path d="M199.596 402.235C200.046 405.668 201.076 409 202.641 412.089L203.516 413.691C204.068 414.631 204.673 415.539 205.328 416.411C208.49 416.615 211.405 416.687 214.073 416.626C218.396 416.651 222.698 416.024 226.834 414.766C226.949 414.727 227.07 414.71 227.191 414.718C227.312 414.725 227.431 414.756 227.54 414.809C227.649 414.862 227.746 414.936 227.827 415.027C227.907 415.117 227.969 415.223 228.008 415.338C228.048 415.452 228.064 415.574 228.057 415.695C228.05 415.816 228.019 415.934 227.966 416.043C227.913 416.152 227.839 416.249 227.748 416.33C227.657 416.41 227.552 416.472 227.437 416.512C227.007 416.661 226.559 416.802 226.093 416.932C223.142 417.749 220.11 418.241 217.052 418.4H216.574C215.178 418.48 213.708 418.521 212.166 418.524C210.487 418.524 208.776 418.491 206.906 418.4C210.645 422.285 215.171 425.325 220.182 427.315C225.193 429.305 230.572 430.199 235.957 429.937C258.716 429.937 278.51 421.298 289.985 402.206L199.596 402.235Z" fill="#B70909"/>
<path d="M204.699 402.234C205.858 408.059 209.216 413.213 214.075 416.626C218.398 416.65 222.7 416.023 226.836 414.766C226.951 414.726 227.072 414.71 227.193 414.717C227.314 414.724 227.433 414.755 227.542 414.809C227.651 414.862 227.748 414.936 227.829 415.026C227.909 415.117 227.971 415.223 228.01 415.337C228.05 415.452 228.066 415.573 228.059 415.694C228.052 415.815 228.021 415.934 227.968 416.043C227.915 416.152 227.841 416.249 227.75 416.329C227.659 416.41 227.553 416.472 227.439 416.511C227.009 416.661 226.561 416.801 226.095 416.932C223.128 417.744 220.083 418.237 217.011 418.4C226.057 423.042 239.139 422.975 254.176 417.195C263.457 413.543 272.126 408.497 279.884 402.229L204.699 402.234Z" fill="#C60505"/>
<path d="M230.61 382.821H231.432V391.49H230.61V382.821ZM229.032 382.821H229.888V391.49H229.032V382.821ZM227.454 382.821H228.31V391.49H227.454V382.821ZM225.876 382.821H226.732V391.49H225.876V382.821ZM224.298 382.821H225.149V391.49H224.298V382.821ZM222.754 382.821H223.576V391.49H222.754V382.821ZM221.889 381.956H232.293V392.36H221.898V381.956H221.889ZM242.611 370.82H243.433V379.489H242.611V370.82ZM241.033 370.82H241.889V379.489H241.038L241.033 370.82ZM239.455 370.82H240.311V379.489H239.46L239.455 370.82ZM237.877 370.82H238.738V379.489H237.882L237.877 370.82ZM236.299 370.82H237.155V379.489H236.299V370.82ZM234.755 370.82H235.577V379.489H234.755V370.82ZM233.89 369.955H244.294V380.359H233.899V369.95L233.89 369.955ZM254.612 382.821H255.434V391.49H254.612V382.821ZM253.034 382.821H253.89V391.49H253.034V382.821ZM251.456 382.821H252.312V391.49H251.456V382.821ZM249.878 382.821H250.734V391.49H249.878V382.821ZM248.3 382.821H249.156V391.49H248.3V382.821ZM246.756 382.821H247.578V391.49H246.756V382.821ZM245.91 381.956H256.314V392.36H245.91V381.956ZM254.612 358.815H255.434V367.483H254.612V358.815ZM253.034 358.815H253.89V367.483H253.034V358.815ZM251.456 358.815H252.312V367.483H251.456V358.815ZM249.878 358.815H250.734V367.483H249.878V358.815ZM248.3 358.815H249.156V367.483H248.3V358.815ZM246.756 358.815H247.578V367.483H246.756V358.815ZM245.91 357.949H256.314V368.353H245.91V357.949Z" fill="#ED2929"/>
<path d="M218.608 382.821H219.43V391.49H218.608V382.821ZM217.03 382.821H217.886V391.49H217.03V382.821ZM215.452 382.821H216.308V391.49H215.457L215.452 382.821ZM213.874 382.821H214.73V391.49H213.874V382.821ZM212.296 382.821H213.152V391.49H212.301L212.296 382.821ZM210.752 382.821H211.574V391.49H210.762V382.821H210.752ZM209.887 381.956H220.286V392.36H209.892L209.887 381.956ZM230.609 370.82H231.431V379.489H230.609V370.82ZM229.031 370.82H229.887V379.489H229.031V370.82ZM227.453 370.82H228.309V379.489H227.453V370.82ZM225.875 370.82H226.731V379.489H225.875V370.82ZM224.297 370.82H225.148V379.489H224.297V370.82ZM222.753 370.82H223.575V379.489H222.753V370.82ZM221.888 369.955H232.292V380.359H221.897V369.95L221.888 369.955ZM254.611 370.82H255.433V379.489H254.611V370.82ZM253.033 370.82H253.889V379.489H253.033V370.82ZM251.455 370.82H252.311V379.489H251.455V370.82ZM249.877 370.82H250.733V379.489H249.877V370.82ZM248.299 370.82H249.155V379.489H248.299V370.82ZM246.755 370.82H247.577V379.489H246.755V370.82ZM245.89 369.955H256.294V380.359H245.909V369.95L245.89 369.955ZM266.611 382.821H267.424V391.49H266.611V382.821ZM265.034 382.821H265.885V391.49H265.034V382.821ZM263.456 382.821H264.312V391.49H263.456V382.821ZM261.878 382.821H262.734V391.49H261.878V382.821ZM260.3 382.821H261.156V391.49H260.3V382.821ZM258.756 382.821H259.578V391.49H258.756V382.821ZM257.89 381.956H268.294V392.36H257.895L257.89 381.956ZM242.61 382.821H243.432V391.49H242.61V382.821ZM241.032 382.821H241.888V391.49H241.037L241.032 382.821ZM239.454 382.821H240.31V391.49H239.459L239.454 382.821ZM237.876 382.821H238.737V391.49H237.881L237.876 382.821ZM236.298 382.821H237.154V391.49H236.298V382.821ZM234.754 382.821H235.576V391.49H234.754V382.821ZM233.889 381.956H244.293V392.36H233.898V381.956H233.889Z" fill="#D10000"/>
<path d="M231.648 409.22C232.215 409.22 232.77 409.388 233.242 409.703C233.714 410.018 234.081 410.466 234.298 410.991C234.516 411.515 234.572 412.092 234.462 412.648C234.351 413.205 234.078 413.716 233.677 414.117C233.275 414.518 232.764 414.791 232.208 414.902C231.651 415.013 231.074 414.956 230.55 414.739C230.026 414.522 229.578 414.154 229.263 413.682C228.948 413.211 228.779 412.656 228.779 412.088C228.779 411.328 229.082 410.598 229.62 410.06C230.158 409.522 230.887 409.22 231.648 409.22Z" fill="#D5EEF2"/>
<path d="M231.644 410.032C231.9 410.028 232.153 410.075 232.39 410.17C232.279 410.235 232.184 410.325 232.112 410.432C232.041 410.54 231.996 410.662 231.98 410.79C231.964 410.918 231.978 411.048 232.02 411.17C232.063 411.291 232.133 411.402 232.225 411.492C232.317 411.582 232.428 411.65 232.551 411.69C232.674 411.73 232.804 411.741 232.931 411.722C233.059 411.703 233.18 411.655 233.286 411.582C233.392 411.508 233.48 411.412 233.542 411.299C233.711 411.706 233.745 412.156 233.639 412.583C233.533 413.011 233.292 413.393 232.952 413.674C232.612 413.954 232.191 414.118 231.751 414.141C231.311 414.164 230.876 414.045 230.508 413.801C230.141 413.558 229.862 413.203 229.711 412.789C229.561 412.375 229.548 411.924 229.673 411.501C229.799 411.079 230.057 410.708 230.409 410.444C230.761 410.179 231.189 410.035 231.63 410.032M180.882 403.271H314.374C311.467 402.535 305.18 401.54 306.213 397.729C300.953 403.845 288.183 402.033 284.965 399.006C281.384 404.203 260.528 402.229 259.074 398.179C254.585 403.438 240.666 403.438 236.177 398.179C234.743 402.229 213.868 404.203 210.286 399.006C207.069 402.023 194.327 403.845 189.039 397.729C190.076 401.554 183.779 402.511 180.877 403.271" fill="#3A4E55"/>
<path d="M239.269 429.899C233.403 427.392 228.697 422.765 226.092 416.941C222.987 417.765 219.802 418.246 216.592 418.376C215.202 418.452 213.741 418.492 212.208 418.495C210.442 418.495 208.58 418.443 206.623 418.338C210.399 422.27 214.977 425.344 220.047 427.348C225.117 429.353 230.559 430.243 236.004 429.956C237.1 429.956 238.189 429.94 239.269 429.899Z" fill="#E0C1C1"/>
<path d="M228.733 421.554C227.691 420.113 226.806 418.565 226.094 416.936C222.989 417.759 219.803 418.24 216.594 418.37C220.373 420.269 224.509 421.35 228.733 421.545" fill="#EFD5D5"/>
<path d="M251.008 325.491H227.633C221.937 325.491 217.32 330.108 217.32 335.804V359.179C217.32 364.874 221.937 369.491 227.633 369.491H251.008C256.703 369.491 261.32 364.874 261.32 359.179V335.804C261.32 330.108 256.703 325.491 251.008 325.491Z" fill="#242938"/>
<path d="M223.115 342.714C223.115 342.714 222.301 342.127 223.278 341.344L225.552 339.31C225.552 339.31 226.204 338.625 226.892 339.222L247.886 355.117V362.738C247.886 362.738 247.876 363.935 246.34 363.803L223.115 342.714Z" fill="#2489CA"/>
<path d="M228.526 347.627L223.114 352.547C223.114 352.547 222.558 352.96 223.114 353.699L225.627 355.985C225.627 355.985 226.223 356.625 227.105 355.896L232.842 351.546L228.526 347.627Z" fill="#1070B3"/>
<path d="M238.026 347.668L247.95 340.09L247.886 332.509C247.886 332.509 247.462 330.854 246.048 331.715L232.842 343.735L238.026 347.668Z" fill="#0877B9"/>
<path d="M246.34 363.814C246.917 364.404 247.615 364.21 247.615 364.21L255.349 360.399C256.339 359.725 256.2 358.887 256.2 358.887V336.13C256.2 335.129 255.176 334.784 255.176 334.784L248.473 331.553C247.008 330.647 246.049 331.715 246.049 331.715C246.049 331.715 247.283 330.827 247.887 332.509V362.6C247.887 362.805 247.842 363.008 247.754 363.193C247.578 363.549 247.195 363.881 246.276 363.742L246.34 363.814Z" fill="#3C99D4"/>
<path d="M443.602 205.491H417.039C410.567 205.491 405.32 210.738 405.32 217.21V243.772C405.32 250.245 410.567 255.491 417.039 255.491H443.602C450.074 255.491 455.32 250.245 455.32 243.772V217.21C455.32 210.738 450.074 205.491 443.602 205.491Z" fill="#F4F2ED"/>
<mask id="mask0_765_1768" style="mask-type:luminance" maskUnits="userSpaceOnUse" x="417" y="210" width="27" height="41">
<path d="M417.234 210.96H443.281V250.022H417.234V210.96Z" fill="white"/>
</mask>
<g mask="url(#mask0_765_1768)">
<path d="M423.747 250.023C427.341 250.023 430.257 247.106 430.257 243.513V237.002H423.747C420.153 237.002 417.236 239.919 417.236 243.513C417.236 247.106 420.153 250.023 423.747 250.023Z" fill="#0ACF83"/>
<path d="M417.236 230.491C417.236 226.897 420.153 223.98 423.747 223.98H430.257V237.001H423.747C420.153 237.001 417.236 234.085 417.236 230.491Z" fill="#A259FF"/>
<path d="M417.236 217.47C417.236 213.877 420.153 210.96 423.747 210.96H430.257V223.981H423.747C420.153 223.981 417.236 221.064 417.236 217.47Z" fill="#F24E1E"/>
<path d="M430.258 210.96H436.768C440.362 210.96 443.279 213.877 443.279 217.47C443.279 221.064 440.362 223.981 436.768 223.981H430.258V210.96Z" fill="#FF7262"/>
<path d="M443.279 230.491C443.279 234.085 440.362 237.001 436.768 237.001C433.174 237.001 430.258 234.085 430.258 230.491C430.258 226.897 433.174 223.98 436.768 223.98C440.362 223.98 443.279 226.897 443.279 230.491Z" fill="#1ABCFE"/>
</g>
<path d="M64.4375 205.491H24.2031C21.5064 205.491 19.3203 207.677 19.3203 210.374V250.608C19.3203 253.305 21.5064 255.491 24.2031 255.491H64.4375C67.1342 255.491 69.3203 253.305 69.3203 250.608V210.374C69.3203 207.677 67.1342 205.491 64.4375 205.491Z" fill="url(#paint0_linear_765_1768)"/>
<path d="M60.4766 211.991H49.9141C48.6196 211.991 47.5703 213.041 47.5703 214.335V231.522C47.5703 232.817 48.6196 233.866 49.9141 233.866H60.4766C61.771 233.866 62.8203 232.817 62.8203 231.522V214.335C62.8203 213.041 61.771 211.991 60.4766 211.991Z" fill="white"/>
<path d="M38.7266 211.991H28.1641C26.8696 211.991 25.8203 213.041 25.8203 214.335V244.022C25.8203 245.317 26.8696 246.366 28.1641 246.366H38.7266C40.021 246.366 41.0703 245.317 41.0703 244.022V214.335C41.0703 213.041 40.021 211.991 38.7266 211.991Z" fill="white"/>
<path d="M187.32 145.491H153.32C145.036 145.491 138.32 152.207 138.32 160.491V194.491C138.32 202.775 145.036 209.491 153.32 209.491H187.32C195.605 209.491 202.32 202.775 202.32 194.491V160.491C202.32 152.207 195.605 145.491 187.32 145.491Z" fill="#242938"/>
<path d="M170.32 182.229C172.896 182.229 174.984 180.141 174.984 177.565C174.984 174.99 172.896 172.901 170.32 172.901C167.745 172.901 165.656 174.99 165.656 177.565C165.656 180.141 167.745 182.229 170.32 182.229Z" fill="#00D8FF"/>
<path d="M170.321 168.082C176.583 168.082 182.4 168.981 186.786 170.491C192.071 172.31 195.32 175.068 195.32 177.565C195.32 180.167 191.877 183.097 186.202 184.977C181.911 186.399 176.265 187.141 170.321 187.141C164.226 187.141 158.455 186.444 154.116 184.962C148.627 183.085 145.32 180.118 145.32 177.565C145.32 175.088 148.423 172.352 153.633 170.535C158.036 169 163.997 168.082 170.32 168.082H170.321Z" stroke="#00D8FF" stroke-width="1.74043"/>
<path d="M162.065 172.851C165.194 167.426 168.878 162.836 172.377 159.791C176.593 156.121 180.606 154.684 182.769 155.932C185.023 157.232 185.841 161.679 184.635 167.534C183.723 171.961 181.545 177.222 178.575 182.372C175.53 187.651 172.044 192.303 168.592 195.32C164.225 199.138 160.002 200.52 157.791 199.244C155.645 198.008 154.824 193.953 155.854 188.531C156.724 183.951 158.906 178.328 162.064 172.851H162.065Z" stroke="#00D8FF" stroke-width="1.74043"/>
<path d="M162.073 182.386C158.936 176.967 156.8 171.482 155.909 166.929C154.835 161.444 155.594 157.25 157.755 155.999C160.008 154.695 164.268 156.208 168.739 160.177C172.119 163.178 175.59 167.693 178.568 172.837C181.621 178.112 183.91 183.455 184.8 187.952C185.927 193.643 185.015 197.992 182.806 199.27C180.662 200.511 176.739 199.198 172.557 195.598C169.023 192.557 165.242 187.858 162.073 182.386Z" stroke="#00D8FF" stroke-width="1.74043"/>
<path d="M302.789 137.491H269.852C261.826 137.491 255.32 143.997 255.32 152.022V184.96C255.32 192.985 261.826 199.491 269.852 199.491H302.789C310.814 199.491 317.32 192.985 317.32 184.96V152.022C317.32 143.997 310.814 137.491 302.789 137.491Z" fill="#242938"/>
<path d="M299.398 149.601H308.117L286.32 187.2L264.523 149.601H281.198L286.32 158.319L291.334 149.601H299.398Z" fill="#41B883"/>
<path d="M264.523 149.601L286.32 187.2L308.117 149.601H299.398L286.32 172.16L273.133 149.601H264.523Z" fill="#41B883"/>
<path d="M273.133 149.601L286.32 172.269L299.398 149.601H291.333L286.32 158.319L281.198 149.601H273.133Z" fill="white"/>
<path d="M285.664 91.4912H256.977C249.987 91.4912 244.32 97.1576 244.32 104.147V132.835C244.32 139.825 249.987 145.491 256.977 145.491H285.664C292.654 145.491 298.32 139.825 298.32 132.835V104.147C298.32 97.1576 292.654 91.4912 285.664 91.4912Z" fill="#242938"/>
<path d="M274.892 99.5199L286.657 99.5068L266.919 119.235L261.775 124.35L255.922 118.49L274.892 99.5199ZM274.783 117.135C274.936 116.933 275.217 117.033 275.43 117.007L286.647 117.009L276.424 127.223L270.54 121.376L274.783 117.135Z" fill="#44D1FD"/>
<path d="M264.676 127.233L270.54 121.376L276.424 127.223L276.448 127.249L270.542 133.101L264.676 127.233Z" fill="#1FBCFD"/>
<path d="M270.541 133.1L276.447 127.249L286.651 137.462C282.807 137.471 278.965 137.459 275.123 137.468C274.904 137.517 274.769 137.317 274.629 137.193L270.541 133.1Z" fill="#08589C"/>
<mask id="mask1_765_1768" style="mask-type:luminance" maskUnits="userSpaceOnUse" x="165" y="95" width="41" height="56">
<path d="M200.56 107.733C200.497 107.408 200.306 107.12 200.029 106.933C199.752 106.745 199.411 106.672 199.08 106.729C198.823 106.765 198.584 106.883 198.4 107.064L191.78 113.6L186.66 103.756C186.493 103.477 186.221 103.274 185.904 103.189C185.586 103.105 185.247 103.146 184.96 103.304C184.731 103.415 184.542 103.594 184.42 103.816L181.58 109.21L174.42 96.0783C174.341 95.9342 174.233 95.8071 174.103 95.7042C173.973 95.6013 173.824 95.5248 173.664 95.479C173.504 95.4332 173.337 95.4191 173.171 95.4375C173.006 95.4559 172.846 95.5064 172.7 95.5861C172.529 95.677 172.381 95.8064 172.27 95.9637C172.159 96.1211 172.087 96.302 172.06 96.4918L165.08 139.903L183.52 150.081C184.094 150.378 184.732 150.533 185.38 150.533C186.028 150.533 186.666 150.378 187.24 150.081L205.92 139.903L200.56 107.733Z" fill="white"/>
</mask>
<g mask="url(#mask1_765_1768)">
<path d="M165.08 139.903L172.06 96.5905C172.105 96.2664 172.276 95.9723 172.537 95.7702C172.799 95.5682 173.13 95.474 173.46 95.5077C173.653 95.5342 173.837 95.6051 173.997 95.7145C174.156 95.824 174.288 95.9689 174.38 96.1377L181.58 109.21L184.42 103.875C184.493 103.727 184.594 103.594 184.719 103.485C184.844 103.376 184.99 103.292 185.149 103.239C185.307 103.186 185.474 103.164 185.641 103.175C185.808 103.186 185.971 103.23 186.12 103.304C186.354 103.41 186.544 103.59 186.66 103.816L205.9 139.903H165.08Z" fill="#F9A01B"/>
<path opacity="0.12" d="M188.72 95.744L154.98 92.9287V153.054L165.08 139.903L188.72 95.744Z" fill="url(#paint1_linear_765_1768)"/>
<path d="M188.98 122.991L181.52 109.21L165.08 139.903L188.98 122.991Z" fill="#F47D20"/>
<path opacity="0.2" d="M154.98 92.9287H216.1V153.054H154.98V92.9287Z" fill="url(#paint2_linear_765_1768)"/>
<path d="M205.9 139.903L200.56 107.733C200.497 107.408 200.306 107.12 200.029 106.932C199.752 106.745 199.411 106.672 199.08 106.729C198.823 106.765 198.584 106.883 198.4 107.064L165.08 139.903L183.52 150.081C184.086 150.401 184.727 150.569 185.38 150.569C186.033 150.569 186.674 150.401 187.24 150.081L205.9 139.903Z" fill="#FFCB2A"/>
<path d="M200.56 107.733C200.497 107.408 200.306 107.12 200.029 106.933C199.752 106.745 199.411 106.672 199.08 106.729C198.823 106.765 198.584 106.883 198.4 107.064L191.78 113.6L186.66 103.756C186.493 103.477 186.221 103.274 185.904 103.189C185.586 103.105 185.247 103.146 184.96 103.304C184.731 103.415 184.542 103.594 184.42 103.816L181.58 109.21L174.42 96.0783C174.341 95.9342 174.233 95.8071 174.103 95.7042C173.973 95.6013 173.824 95.5248 173.664 95.479C173.504 95.4332 173.337 95.4191 173.171 95.4375C173.006 95.4559 172.846 95.5064 172.7 95.5861C172.529 95.677 172.381 95.8064 172.27 95.9637C172.159 96.1211 172.087 96.302 172.06 96.4918L165.08 139.903H165.28L191.84 113.915L198.46 107.379C198.68 107.132 198.989 106.98 199.322 106.954C199.654 106.928 199.984 107.031 200.24 107.241C200.263 107.283 200.297 107.317 200.34 107.34C200.517 107.533 200.635 107.772 200.68 108.029L205.94 139.922L200.56 107.733ZM165.08 139.844L172.06 96.8068C172.119 96.4779 172.307 96.1854 172.585 95.9935C172.862 95.8015 173.206 95.7258 173.54 95.783C173.724 95.8131 173.899 95.8836 174.051 95.9893C174.203 96.0949 174.329 96.233 174.42 96.3933L181.56 109.486L184.4 104.15C184.476 104.005 184.58 103.876 184.707 103.772C184.835 103.667 184.982 103.589 185.14 103.541C185.299 103.493 185.465 103.477 185.63 103.494C185.795 103.511 185.955 103.56 186.1 103.638C186.338 103.744 186.535 103.924 186.66 104.15L191.74 113.699L165.08 139.844Z" fill="white" fill-opacity="0.2"/>
<path opacity="0.2" d="M187.32 149.767C186.75 150.086 186.106 150.254 185.45 150.254C184.795 150.254 184.15 150.086 183.58 149.767L165.32 139.628V139.904L183.74 150.082C184.317 150.382 184.958 150.539 185.61 150.539C186.262 150.539 186.904 150.382 187.48 150.082L206.14 139.904V139.628L187.32 149.767Z" fill="#A52A22"/>
<path d="M200.56 107.733C200.497 107.408 200.306 107.12 200.029 106.933C199.752 106.745 199.411 106.672 199.08 106.729C198.823 106.765 198.584 106.883 198.4 107.064L191.78 113.6L186.66 103.756C186.493 103.477 186.221 103.274 185.904 103.189C185.586 103.105 185.247 103.146 184.96 103.304C184.731 103.415 184.542 103.594 184.42 103.816L181.58 109.21L174.42 96.0783C174.341 95.9342 174.233 95.8071 174.103 95.7042C173.973 95.6013 173.824 95.5248 173.664 95.479C173.504 95.4332 173.337 95.4191 173.171 95.4375C173.006 95.4559 172.846 95.5064 172.7 95.5861C172.529 95.677 172.381 95.8064 172.27 95.9637C172.159 96.1211 172.087 96.302 172.06 96.4918L165.08 139.903L183.52 150.081C184.094 150.378 184.732 150.533 185.38 150.533C186.028 150.533 186.666 150.378 187.24 150.081L205.92 139.903L200.56 107.733Z" fill="url(#paint3_linear_765_1768)"/>
</g>
<path d="M200.82 150.554C207.856 150.554 213.56 144.939 213.56 138.013C213.56 131.086 207.856 125.472 200.82 125.472C193.784 125.472 188.08 131.086 188.08 138.013C188.08 144.939 193.784 150.554 200.82 150.554Z" fill="#767676"/>
<path fill-rule="evenodd" clip-rule="evenodd" d="M200.82 131.752C199.556 131.748 198.32 132.114 197.268 132.802C196.216 133.491 195.395 134.471 194.909 135.62C194.424 136.768 194.296 138.033 194.542 139.253C194.787 140.473 195.395 141.594 196.289 142.473C197.182 143.353 198.321 143.951 199.56 144.193C200.8 144.435 202.084 144.309 203.251 143.831C204.417 143.353 205.413 142.545 206.113 141.509C206.813 140.473 207.184 139.256 207.18 138.013C207.18 136.352 206.51 134.76 205.317 133.586C204.124 132.412 202.507 131.752 200.82 131.752ZM200.18 142.994C198.948 142.84 197.815 142.25 196.994 141.332C196.173 140.415 195.72 139.235 195.72 138.013C195.73 137.635 195.777 137.259 195.86 136.89L198.9 139.903V140.533C198.9 140.867 199.035 141.187 199.275 141.424C199.515 141.66 199.84 141.793 200.18 141.793V142.994ZM204.58 141.359C204.493 141.108 204.329 140.89 204.11 140.735C203.892 140.58 203.629 140.495 203.36 140.493H202.72V138.741C202.72 138.574 202.652 138.414 202.532 138.296C202.412 138.177 202.25 138.111 202.08 138.111H198.26V136.772H199.54C199.71 136.772 199.872 136.706 199.992 136.588C200.112 136.47 200.18 136.309 200.18 136.142V134.902H201.46C201.796 134.897 202.116 134.762 202.352 134.526C202.588 134.29 202.72 133.973 202.72 133.642V133.386C203.341 133.633 203.907 133.998 204.385 134.46C204.863 134.922 205.244 135.472 205.505 136.079C205.767 136.686 205.905 137.338 205.911 137.997C205.917 138.657 205.791 139.311 205.54 139.922C205.315 140.464 204.997 140.963 204.6 141.399L204.58 141.359Z" fill="white"/>
<path d="M211.352 222.491H193.289C188.888 222.491 185.32 226.059 185.32 230.46V248.522C185.32 252.923 188.888 256.491 193.289 256.491H211.352C215.753 256.491 219.32 252.923 219.32 248.522V230.46C219.32 226.059 215.753 222.491 211.352 222.491Z" fill="#E14E1D"/>
<path d="M191.695 227.538L192.839 240.367H207.543L207.049 245.869L202.315 247.149L197.59 245.871L197.274 242.338H193.015L193.624 249.149L202.314 251.562L211.014 249.149L212.181 236.125H196.719L196.331 231.781H212.565L212.945 227.538H191.695Z" fill="white"/>
<path d="M202.32 227.538H191.695L192.839 240.367H202.32V236.125H196.719L196.331 231.781H202.32V227.538ZM202.32 247.147L202.315 247.149L197.59 245.871L197.274 242.338H193.015L193.624 249.149L202.314 251.562L202.32 251.56L202.32 247.147Z" fill="#EBEBEB"/>
<path d="M246.883 227.491H227.758C223.098 227.491 219.32 231.269 219.32 235.929V255.054C219.32 259.714 223.098 263.491 227.758 263.491H246.883C251.543 263.491 255.32 259.714 255.32 255.054V235.929C255.32 231.269 251.543 227.491 246.883 227.491Z" fill="#0277BD"/>
<path d="M226.879 241.927L227.282 246.418H237.334V241.927H226.879ZM237.334 232.835H226.07L226.479 237.327H237.334V232.835ZM237.334 258.266V253.592L237.314 253.598L232.311 252.247L231.992 248.664H227.482L228.112 255.717L237.313 258.271L237.334 258.266Z" fill="#EBEBEB"/>
<path d="M242.85 246.418L242.328 252.244L237.318 253.596V258.269L246.527 255.717L246.594 254.958L247.65 243.133L247.759 241.927L248.57 232.835H237.318V237.327H243.648L243.239 241.927H237.318V246.418H242.85Z" fill="white"/>
<path d="M291.898 199.491H263.742C256.882 199.491 251.32 205.472 251.32 212.851V243.132C251.32 250.51 256.882 256.491 263.742 256.491H291.898C298.759 256.491 304.32 250.51 304.32 243.132V212.851C304.32 205.472 298.759 199.491 291.898 199.491Z" fill="#F0DB4F"/>
<path d="M265.256 247.125L269.312 244.485C270.094 245.977 270.806 247.239 272.514 247.239C274.15 247.239 275.182 246.551 275.182 243.873V225.66H280.163V243.948C280.163 249.496 277.139 252.022 272.727 252.022C268.743 252.022 266.43 249.803 265.256 247.124M282.868 246.551L286.923 244.025C287.991 245.9 289.379 247.278 291.833 247.278C293.897 247.278 295.213 246.168 295.213 244.638C295.213 242.801 293.861 242.15 291.584 241.08L290.339 240.505C286.746 238.86 284.362 236.794 284.362 232.432C284.362 228.415 287.208 225.354 291.655 225.354C294.822 225.354 297.099 226.54 298.735 229.639L294.857 232.317C294.003 230.672 293.079 230.022 291.655 230.022C290.197 230.022 289.272 231.017 289.272 232.317C289.272 233.924 290.197 234.575 292.331 235.57L293.576 236.144C297.81 238.095 300.194 240.084 300.194 244.561C300.194 249.382 296.672 252.022 291.94 252.022C287.315 252.022 284.327 249.65 282.868 246.551Z" fill="#323330"/>
<path d="M245.258 97.4912H213.383C205.616 97.4912 199.32 103.787 199.32 111.554V143.429C199.32 151.195 205.616 157.491 213.383 157.491H245.258C253.024 157.491 259.32 151.195 259.32 143.429V111.554C259.32 103.787 253.024 97.4912 245.258 97.4912Z" fill="#242938"/>
<path d="M219.816 117.883L217.088 115.154L217.098 134.866L217.131 135.786C217.145 136.221 217.227 136.709 217.359 137.216L238.964 144.836L244.369 142.444L244.373 142.436L219.815 117.883H219.816Z" fill="#00C4B3"/>
<path d="M217.361 137.216H217.363C217.36 137.207 217.357 137.198 217.354 137.189C217.358 137.2 217.358 137.209 217.36 137.216H217.361ZM244.365 142.443L238.959 144.836L217.358 137.216C217.77 138.801 218.685 140.582 219.667 141.553L226.713 148.565L242.394 148.585L244.358 142.443H244.365Z" fill="#22D3C5"/>
<path d="M217.162 115.154L208.762 127.84C208.065 128.585 208.413 130.122 209.535 131.255L214.384 136.143L217.432 137.218C217.3 136.711 217.217 136.229 217.205 135.787L217.172 134.867L217.162 115.156V115.154Z" fill="#0075C9"/>
<path d="M239.141 115.408C238.634 115.28 238.147 115.198 237.709 115.186L236.735 115.15L217.088 115.155L244.373 142.436L246.77 137.03L239.143 115.409L239.141 115.408Z" fill="#0075C9"/>
<path d="M239.117 115.404C239.125 115.407 239.134 115.409 239.142 115.41V115.408C239.134 115.406 239.126 115.406 239.117 115.402V115.404ZM243.478 117.723C242.486 116.724 240.729 115.811 239.142 115.41L246.769 137.03L244.37 142.435L250.224 140.564L250.238 124.512L243.477 117.722L243.478 117.723Z" fill="#00A8E1"/>
<path d="M238.072 112.379L233.194 107.528C232.056 106.409 230.519 106.06 229.781 106.756L217.096 115.154L236.743 115.149L237.717 115.185C238.155 115.198 238.642 115.279 239.149 115.407L238.073 112.378L238.072 112.379Z" fill="#00C4B3"/>
<path d="M176.32 197.491C169.654 197.491 165.488 200.823 163.82 207.49C166.32 204.158 169.237 202.908 172.57 203.741C174.472 204.215 175.832 205.595 177.338 207.124C179.789 209.611 182.625 212.49 188.82 212.49C195.487 212.49 199.652 209.158 201.32 202.49C198.82 205.824 195.904 207.074 192.571 206.24C190.668 205.766 189.31 204.387 187.802 202.858C185.353 200.371 182.517 197.491 176.32 197.491ZM163.82 212.49C157.154 212.49 152.988 215.823 151.32 222.491C153.82 219.157 156.736 217.907 160.07 218.74C161.972 219.215 163.332 220.594 164.838 222.123C167.289 224.61 170.125 227.49 176.32 227.49C182.987 227.49 187.152 224.158 188.82 217.491C186.32 220.823 183.404 222.073 180.071 221.24C178.168 220.765 176.81 219.386 175.302 217.857C172.853 215.37 170.017 212.49 163.82 212.49Z" fill="#38BDF8"/>
<path d="M206.781 182.397H265.96V226.139H206.781V182.397Z" fill="white"/>
<path d="M194.211 192.438V229.547H268.43V155.328H194.211V192.438ZM254.019 189.469C255.797 189.881 257.413 190.811 258.662 192.141C259.35 192.857 259.949 193.655 260.444 194.516C260.444 194.611 257.237 196.778 255.284 197.989C255.213 198.037 254.928 197.728 254.613 197.259C254.257 196.643 253.75 196.128 253.14 195.762C252.531 195.395 251.839 195.189 251.128 195.163C248.877 195.008 247.429 196.19 247.441 198.132C247.423 198.615 247.533 199.094 247.761 199.521C248.254 200.548 249.174 201.16 252.06 202.407C257.374 204.692 259.648 206.201 261.061 208.344C262.641 210.719 262.991 214.555 261.922 217.393C260.735 220.48 257.825 222.576 253.711 223.271C251.831 223.486 249.932 223.466 248.058 223.212C245.185 222.738 242.539 221.359 240.506 219.275C239.823 218.521 238.493 216.556 238.576 216.413C238.792 216.252 239.021 216.107 239.259 215.98L242.008 214.46L244.139 213.225L244.585 213.884C245.336 214.959 246.293 215.875 247.399 216.579C249.774 217.826 253.016 217.654 254.619 216.211C255.157 215.683 255.493 214.982 255.568 214.231C255.643 213.48 255.452 212.727 255.029 212.102C254.435 211.277 253.247 210.582 249.928 209.134C246.099 207.483 244.448 206.462 242.94 204.835C241.999 203.761 241.304 202.495 240.903 201.124C240.605 199.558 240.561 197.954 240.773 196.374C241.562 192.675 244.335 190.092 248.385 189.326C250.26 189.095 252.16 189.147 254.019 189.481V189.469ZM236.599 192.58V195.62H226.962V223.069H220.128V195.614H210.468V192.645C210.438 191.622 210.461 190.597 210.539 189.576C210.587 189.522 216.477 189.522 223.602 189.522H236.563L236.599 192.58Z" fill="#007ACC"/>
<path d="M43.8218 254.991L43.8218 348.992L217.321 348.992" stroke="#0D3858" stroke-dasharray="2 2"/>
<path d="M235.82 263.491V324.991M230.82 49.9912V96.4912" stroke="#0D3858" stroke-dasharray="2 2"/>
<path d="M430.321 255.491L430.321 347.491L260.82 347.491" stroke="url(#paint4_linear_765_1768)" stroke-dasharray="2 2"/>
<defs>
<linearGradient id="paint0_linear_765_1768" x1="2519.32" y1="205.491" x2="2519.32" y2="5205.49" gradientUnits="userSpaceOnUse">
<stop stop-color="#0091E6"/>
<stop offset="1" stop-color="#0079BF"/>
</linearGradient>
<linearGradient id="paint1_linear_765_1768" x1="173.1" y1="125.039" x2="170.578" y2="123.687" gradientUnits="userSpaceOnUse">
<stop stop-color="#A52A22"/>
<stop offset="0.4" stop-color="#A52A22" stop-opacity="0.5"/>
<stop offset="0.8" stop-color="#A52A22" stop-opacity="0"/>
</linearGradient>
<linearGradient id="paint2_linear_765_1768" x1="183.9" y1="121.417" x2="182.758" y2="120.276" gradientUnits="userSpaceOnUse">
<stop stop-color="#A52A22" stop-opacity="0.8"/>
<stop offset="0.5" stop-color="#A52A22" stop-opacity="0.21"/>
<stop offset="1" stop-color="#A52A22" stop-opacity="0"/>
</linearGradient>
<linearGradient id="paint3_linear_765_1768" x1="164.02" y1="105.154" x2="205.91" y2="147.689" gradientUnits="userSpaceOnUse">
<stop stop-color="white" stop-opacity="0.1"/>
<stop offset="1" stop-color="white" stop-opacity="0"/>
</linearGradient>
<linearGradient id="paint4_linear_765_1768" x1="290.32" y1="354.491" x2="446.82" y2="266.991" gradientUnits="userSpaceOnUse">
<stop stop-color="#242938"/>
<stop offset="0.265773" stop-color="#A259FF"/>
<stop offset="0.60521" stop-color="#0ACF83"/>
<stop offset="0.8105" stop-color="#1ABCFE"/>
<stop offset="1" stop-color="#FF7262"/>
</linearGradient>
</defs>
</svg>
