<svg width="23" height="19" viewBox="0 0 23 19" fill="none" xmlns="http://www.w3.org/2000/svg">
<path id="Vector" d="M20.7 5.17383L11.5 10.7988L2.3 5.17383V2.92383L11.5 8.54883L20.7 2.92383M20.7 0.673828H2.3C1.0235 0.673828 0 1.67508 0 2.92383V16.4238C0 17.0206 0.242321 17.5929 0.673654 18.0148C1.10499 18.4368 1.69 18.6738 2.3 18.6738H20.7C21.31 18.6738 21.895 18.4368 22.3263 18.0148C22.7577 17.5929 23 17.0206 23 16.4238V2.92383C23 2.32709 22.7577 1.75479 22.3263 1.33284C21.895 0.910881 21.31 0.673828 20.7 0.673828Z" fill="#444444"/>
</svg>
