<svg width="50" height="50" viewBox="0 0 50 50" fill="none" xmlns="http://www.w3.org/2000/svg">
<g id="Group">
<path id="Vector" d="M38.2812 0H11.7188C5.24666 0 0 5.24666 0 11.7188V38.2812C0 44.7533 5.24666 50 11.7188 50H38.2812C44.7533 50 50 44.7533 50 38.2812V11.7188C50 5.24666 44.7533 0 38.2812 0Z" fill="#F4F2ED"/>
<g id="Clip path group">
<mask id="mask0_627_531" style="mask-type:luminance" maskUnits="userSpaceOnUse" x="11" y="5" width="27" height="40">
<g id="skillIconsFigmaLight0">
<path id="Vector_2" d="M11.9141 5.46875H37.9609V44.5312H11.9141V5.46875Z" fill="white"/>
</g>
</mask>
<g mask="url(#mask0_627_531)">
<g id="Group_2">
<path id="Vector_3" d="M18.4271 44.5316C22.0209 44.5316 24.9375 41.615 24.9375 38.0213V31.5107H18.4271C14.8334 31.5107 11.9166 34.4275 11.9166 38.0213C11.9166 41.615 14.8334 44.5316 18.4271 44.5316Z" fill="#0ACF83"/>
<path id="Vector_4" d="M11.9166 24.9996C11.9166 21.4059 14.8334 18.4893 18.4271 18.4893H24.9375V31.51H18.4271C14.8334 31.51 11.9166 28.5934 11.9166 24.9996Z" fill="#A259FF"/>
<path id="Vector_5" d="M11.9166 11.9791C11.9166 8.38535 14.8334 5.46875 18.4271 5.46875H24.9375V18.4896H18.4271C14.8334 18.4896 11.9166 15.5729 11.9166 11.9791Z" fill="#F24E1E"/>
<path id="Vector_6" d="M24.9375 5.46875H31.4479C35.0416 5.46875 37.9584 8.38535 37.9584 11.9791C37.9584 15.5729 35.0416 18.4896 31.4479 18.4896H24.9375V5.46875Z" fill="#FF7262"/>
<path id="Vector_7" d="M37.9584 24.9996C37.9584 28.5934 35.0416 31.51 31.4479 31.51C27.8541 31.51 24.9375 28.5934 24.9375 24.9996C24.9375 21.4059 27.8541 18.4893 31.4479 18.4893C35.0416 18.4893 37.9584 21.4059 37.9584 24.9996Z" fill="#1ABCFE"/>
</g>
</g>
</g>
</g>
</svg>
