<svg width="33" height="44" viewBox="0 0 33 44" fill="none" xmlns="http://www.w3.org/2000/svg">
<g id="Clip path group">
<mask id="mask0_627_88" style="mask-type:luminance" maskUnits="userSpaceOnUse" x="0" y="0" width="33" height="44">
<g id="vscodeIconsFileTypeLightFirebasehosting3">
<path id="Vector" d="M27.9063 9.89078C27.8569 9.63267 27.7079 9.40437 27.4915 9.25525C27.2752 9.10612 27.0088 9.04816 26.75 9.0939C26.5488 9.12253 26.3624 9.21575 26.2188 9.35953L21.0469 14.547L17.0469 6.73453C16.9163 6.51304 16.7042 6.35143 16.456 6.28427C16.2078 6.21712 15.9432 6.24973 15.7187 6.37515C15.5396 6.4638 15.3922 6.6057 15.2969 6.7814L13.0781 11.0627L7.48438 0.640778C7.4223 0.526403 7.33816 0.425472 7.23682 0.343824C7.13548 0.262176 7.01896 0.201432 6.894 0.165106C6.76904 0.128779 6.63811 0.117591 6.5088 0.13219C6.37948 0.146788 6.25434 0.186882 6.14062 0.250153C6.00671 0.32229 5.89166 0.424949 5.80479 0.549818C5.71793 0.674687 5.66169 0.818257 5.64062 0.968903L0.1875 35.422L14.5938 43.5002C15.0419 43.7356 15.5406 43.8586 16.0469 43.8586C16.5531 43.8586 17.0518 43.7356 17.5 43.5002L32.0937 35.422L27.9063 9.89078Z" fill="white"/>
</g>
</mask>
<g mask="url(#mask0_627_88)">
<g id="Group">
<path id="Vector_2" d="M0.1875 35.4223L5.64062 1.04731C5.67575 0.790122 5.8095 0.556672 6.01361 0.396302C6.21771 0.235932 6.47618 0.161211 6.73437 0.187933C6.88502 0.208995 7.02859 0.265235 7.15346 0.3521C7.27833 0.438966 7.38099 0.554015 7.45312 0.687933L13.0781 11.0629L15.2969 6.82856C15.3535 6.71087 15.433 6.60563 15.5307 6.51897C15.6284 6.43231 15.7424 6.36596 15.866 6.32379C15.9896 6.28162 16.1204 6.26446 16.2507 6.27333C16.381 6.2822 16.5082 6.31691 16.625 6.37543C16.8074 6.45942 16.9561 6.60258 17.0469 6.78168L32.0781 35.4223H0.1875Z" fill="#F9A01B"/>
<path id="Vector_3" opacity="0.12" d="M18.6563 0.375L-7.70312 -1.85938V45.8594L0.1875 35.4219L18.6563 0.375Z" fill="url(#paint0_linear_627_88)"/>
<path id="Vector_4" d="M18.8594 22L13.0312 11.0625L0.1875 35.4219L18.8594 22Z" fill="#F47D20"/>
<path id="Vector_5" opacity="0.2" d="M-7.70312 -1.85938H40.0469V45.8594H-7.70312V-1.85938Z" fill="url(#paint1_linear_627_88)"/>
<path id="Vector_6" d="M32.0781 35.4215L27.9063 9.89027C27.8569 9.63216 27.7079 9.40386 27.4915 9.25474C27.2752 9.10561 27.0088 9.04765 26.75 9.09339C26.5488 9.12202 26.3624 9.21524 26.2188 9.35902L0.1875 35.4215L14.5938 43.4996C15.0361 43.7532 15.537 43.8866 16.0469 43.8866C16.5567 43.8866 17.0577 43.7532 17.5 43.4996L32.0781 35.4215Z" fill="#FFCB2A"/>
<path id="Vector_7" d="M27.9063 9.89078C27.8569 9.63267 27.7079 9.40437 27.4915 9.25525C27.2752 9.10612 27.0088 9.04816 26.75 9.0939C26.5488 9.12253 26.3624 9.21575 26.2188 9.35953L21.0469 14.547L17.0469 6.73453C16.9163 6.51304 16.7042 6.35143 16.456 6.28428C16.2078 6.21712 15.9432 6.24973 15.7187 6.37515C15.5396 6.4638 15.3922 6.6057 15.2969 6.7814L13.0781 11.0627L7.48438 0.640778C7.4223 0.526403 7.33816 0.425472 7.23682 0.343824C7.13548 0.262176 7.01896 0.201432 6.894 0.165106C6.76904 0.128779 6.63811 0.117591 6.5088 0.13219C6.37948 0.146788 6.25434 0.186882 6.14062 0.250153C6.00671 0.32229 5.89166 0.424949 5.80479 0.549818C5.71793 0.674687 5.66169 0.818257 5.64062 0.968903L0.1875 35.422H0.34375L21.0938 14.797L26.2656 9.60953C26.4375 9.41374 26.679 9.29276 26.9387 9.27234C27.1984 9.25191 27.4559 9.33365 27.6562 9.50015C27.6739 9.53345 27.7011 9.56067 27.7344 9.57828C27.8728 9.7318 27.9649 9.92142 28 10.1252L32.1094 35.4377L27.9063 9.89078ZM0.1875 35.3752L5.64062 1.2189C5.68639 0.957923 5.83386 0.725773 6.05065 0.573434C6.26744 0.421095 6.53583 0.36102 6.79687 0.406403C6.9405 0.430286 7.0769 0.486236 7.19593 0.570096C7.31495 0.653955 7.41355 0.763566 7.48438 0.890778L13.0625 11.2814L15.2812 7.04703C15.3404 6.93187 15.4221 6.82974 15.5214 6.74668C15.6207 6.66362 15.7357 6.60131 15.8595 6.56343C15.9833 6.52556 16.1135 6.51289 16.2423 6.52618C16.3711 6.53946 16.4959 6.57843 16.6094 6.64078C16.7956 6.7249 16.9492 6.86755 17.0469 7.04703L21.0156 14.6252L0.1875 35.3752Z" fill="white" fill-opacity="0.2"/>
<path id="Vector_8" opacity="0.2" d="M17.5625 43.25C17.1173 43.5034 16.6138 43.6367 16.1016 43.6367C15.5893 43.6367 15.0858 43.5034 14.6406 43.25L0.375 35.2031V35.4219L14.7656 43.5C15.2158 43.7381 15.7173 43.8625 16.2266 43.8625C16.7358 43.8625 17.2373 43.7381 17.6875 43.5L32.2656 35.4219V35.2031L17.5625 43.25Z" fill="#A52A22"/>
<path id="Vector_9" d="M27.9063 9.89078C27.8569 9.63267 27.7079 9.40437 27.4915 9.25525C27.2752 9.10612 27.0088 9.04816 26.75 9.0939C26.5488 9.12253 26.3624 9.21575 26.2188 9.35953L21.0469 14.547L17.0469 6.73453C16.9163 6.51304 16.7042 6.35143 16.456 6.28427C16.2078 6.21712 15.9432 6.24973 15.7187 6.37515C15.5396 6.4638 15.3922 6.6057 15.2969 6.7814L13.0781 11.0627L7.48438 0.640778C7.4223 0.526403 7.33816 0.425472 7.23682 0.343824C7.13548 0.262176 7.01896 0.201432 6.894 0.165106C6.76904 0.128779 6.63811 0.117591 6.5088 0.13219C6.37948 0.146788 6.25434 0.186882 6.14062 0.250153C6.00671 0.32229 5.89166 0.424949 5.80479 0.549818C5.71793 0.674687 5.66169 0.818257 5.64062 0.968903L0.1875 35.422L14.5938 43.5002C15.0419 43.7356 15.5406 43.8586 16.0469 43.8586C16.5531 43.8586 17.0518 43.7356 17.5 43.5002L32.0937 35.422L27.9063 9.89078Z" fill="url(#paint2_linear_627_88)"/>
</g>
</g>
</g>
<defs>
<linearGradient id="paint0_linear_627_88" x1="6.45313" y1="23.625" x2="4.46875" y2="22.5781" gradientUnits="userSpaceOnUse">
<stop stop-color="#A52A22"/>
<stop offset="0.4" stop-color="#A52A22" stop-opacity="0.5"/>
<stop offset="0.8" stop-color="#A52A22" stop-opacity="0"/>
</linearGradient>
<linearGradient id="paint1_linear_627_88" x1="14.8906" y1="20.75" x2="13.9844" y2="19.8594" gradientUnits="userSpaceOnUse">
<stop stop-color="#A52A22" stop-opacity="0.8"/>
<stop offset="0.5" stop-color="#A52A22" stop-opacity="0.21"/>
<stop offset="1" stop-color="#A52A22" stop-opacity="0"/>
</linearGradient>
<linearGradient id="paint2_linear_627_88" x1="-0.640625" y1="7.8439" x2="32.6094" y2="41.0783" gradientUnits="userSpaceOnUse">
<stop stop-color="white" stop-opacity="0.1"/>
<stop offset="1" stop-color="white" stop-opacity="0"/>
</linearGradient>
</defs>
</svg>
