<svg width="50" height="50" viewBox="0 0 50 50" fill="none" xmlns="http://www.w3.org/2000/svg">
<g id="Group">
<path id="Vector" d="M38.2812 0H11.7188C5.24666 0 0 5.24666 0 11.7188V38.2812C0 44.7533 5.24666 50 11.7188 50H38.2812C44.7533 50 50 44.7533 50 38.2812V11.7188C50 5.24666 44.7533 0 38.2812 0Z" fill="#242938"/>
<path id="Vector_2" d="M28.3074 7.43398L39.201 7.42188L20.9246 25.6887L16.1615 30.4252L10.7422 24.9992L28.3074 7.43398ZM28.2061 23.7439C28.3475 23.5572 28.6076 23.6494 28.8051 23.6254L39.1916 23.6279L29.7254 33.085L24.2779 27.6709L28.2061 23.7439Z" fill="#44D1FD"/>
<path id="Vector_3" d="M18.8479 33.0941L24.2779 27.6709L29.7254 33.085L29.748 33.109L24.2793 38.527L18.8479 33.0941Z" fill="#1FBCFD"/>
<path id="Vector_4" d="M24.2793 38.5273L29.748 33.1094L39.1955 42.5662C35.6369 42.5742 32.0795 42.5635 28.5223 42.5715C28.3195 42.6168 28.1941 42.4314 28.0646 42.3168L24.2793 38.5273Z" fill="#08589C"/>
</g>
</svg>
