<svg width="21" height="20" viewBox="0 0 21 20" fill="none" xmlns="http://www.w3.org/2000/svg">
<path id="Vector" fill-rule="evenodd" clip-rule="evenodd" d="M10.4995 0.173828C4.70104 0.173828 0 4.5351 0 9.91489C0 14.2185 3.00785 17.8694 7.18065 19.1567C7.70619 19.2469 7.89735 18.9469 7.89735 18.6879C7.89735 18.4571 7.88819 17.845 7.88362 17.0313C4.96273 17.6204 4.34646 15.7253 4.34646 15.7253C3.86885 14.6001 3.18042 14.3009 3.18042 14.3009C2.22708 13.697 3.25285 13.7087 3.25285 13.7087C4.30662 13.7779 4.86123 14.7122 4.86123 14.7122C5.79762 16.2008 7.31904 15.77 7.917 15.5222C8.01204 14.8916 8.28396 14.4632 8.58362 14.2192C6.25235 13.9735 3.80127 13.1378 3.80127 9.40539C3.80127 8.34167 4.21023 7.47201 4.88169 6.79092C4.77427 6.54566 4.41323 5.55537 4.98481 4.21367C4.98481 4.21367 5.86627 3.95192 7.87258 5.21295C8.70962 4.99591 9.60804 4.88751 10.5011 4.88427C11.3928 4.88776 12.2915 4.99591 13.1296 5.21295C15.1345 3.95192 16.0147 4.21367 16.0147 4.21367C16.5876 5.55537 16.2268 6.54566 16.1191 6.79092C16.7922 7.47201 17.1982 8.34167 17.1982 9.40539C17.1982 13.1465 14.7436 13.9707 12.4045 14.211C12.7809 14.5119 13.1169 15.1076 13.1169 16.0165C13.1169 17.318 13.1043 18.3682 13.1043 18.6876C13.1043 18.9486 13.293 19.2521 13.8261 19.1554C17.9943 17.8654 21 14.2172 21 9.91489C21 4.5351 16.299 0.173828 10.4995 0.173828Z" fill="#444444"/>
</svg>
