<svg width="20" height="20" viewBox="0 0 20 20" fill="none" xmlns="http://www.w3.org/2000/svg">
<path id="Vector" d="M10 7.31783C9.5095 7.31783 9.03002 7.456 8.62219 7.71489C8.21435 7.97377 7.89648 8.34172 7.70878 8.77223C7.52107 9.20273 7.47196 9.67644 7.56765 10.1335C7.66334 10.5905 7.89954 11.0103 8.24638 11.3398C8.59321 11.6693 9.0351 11.8937 9.51618 11.9846C9.99725 12.0755 10.4959 12.0288 10.9491 11.8505C11.4022 11.6722 11.7895 11.3702 12.062 10.9828C12.3346 10.5953 12.48 10.1398 12.48 9.67383C12.48 9.36443 12.4159 9.05807 12.2912 8.77223C12.1666 8.48638 11.9839 8.22666 11.7536 8.00788C11.5233 7.78911 11.2499 7.61557 10.9491 7.49717C10.6482 7.37877 10.3257 7.31783 10 7.31783ZM19.93 4.99033C19.9247 4.2567 19.7825 3.52977 19.51 2.84333C19.3093 2.34103 18.9987 1.88487 18.5988 1.50495C18.1989 1.12504 17.7187 0.83001 17.19 0.639328C16.4674 0.380419 15.7022 0.245326 14.93 0.240328C13.64 0.173828 13.26 0.173828 10 0.173828C6.74 0.173828 6.36 0.173828 5.07 0.240328C4.29776 0.245326 3.53257 0.380419 2.81 0.639328C2.28126 0.83001 1.80109 1.12504 1.40119 1.50495C1.00128 1.88487 0.690718 2.34103 0.49 2.84333C0.217464 3.52977 0.0752609 4.2567 0.0699999 4.99033C-6.4373e-08 6.21583 0 6.57683 0 9.67383C0 12.7708 -6.4373e-08 13.1318 0.0699999 14.3573C0.0807639 15.0935 0.222774 15.8227 0.49 16.5138C0.689828 17.0138 1.00013 17.4674 1.4 17.8438C1.79819 18.226 2.27939 18.5211 2.81 18.7083C3.53257 18.9672 4.29776 19.1023 5.07 19.1073C6.36 19.1738 6.74 19.1738 10 19.1738C13.26 19.1738 13.64 19.1738 14.93 19.1073C15.7022 19.1023 16.4674 18.9672 17.19 18.7083C17.7206 18.5211 18.2018 18.226 18.6 17.8438C18.9999 17.4674 19.3102 17.0138 19.51 16.5138C19.7823 15.824 19.9244 15.094 19.93 14.3573C20 13.1318 20 12.7708 20 9.67383C20 6.57683 20 6.21583 19.93 4.99033ZM17.39 12.5903C17.3579 13.1766 17.2262 13.754 17 14.3003C16.8059 14.756 16.5173 15.17 16.1514 15.5176C15.7854 15.8652 15.3497 16.1394 14.87 16.3238C14.2895 16.5267 13.6783 16.639 13.06 16.6563H6.94C6.32173 16.639 5.71049 16.5267 5.13 16.3238C4.6341 16.1488 4.18628 15.8695 3.82 15.5068C3.45767 15.166 3.17784 14.7543 3 14.3003C2.78556 13.7494 2.67061 13.1681 2.66 12.5808V6.76683C2.67061 6.17956 2.78556 5.59822 3 5.04733C3.18428 4.57623 3.47827 4.15079 3.86 3.80283C4.22033 3.46047 4.65326 3.19492 5.13 3.02383C5.71049 2.82091 6.32173 2.70863 6.94 2.69133H13.06C13.6783 2.70863 14.2895 2.82091 14.87 3.02383C15.3659 3.1989 15.8137 3.47819 16.18 3.84083C16.5423 4.18164 16.8222 4.59335 17 5.04733C17.2136 5.59879 17.3318 6.17947 17.35 6.76683V9.67383C17.35 11.6308 17.42 11.8303 17.39 12.5808V12.5903ZM15.79 5.52233C15.6709 5.21546 15.4832 4.93679 15.2398 4.70553C14.9964 4.47427 14.703 4.29594 14.38 4.18283C13.9365 4.03678 13.4693 3.96603 13 3.97383H7C6.52827 3.97821 6.06107 4.06183 5.62 4.22083C5.30193 4.3288 5.01169 4.49986 4.76858 4.72262C4.52547 4.94538 4.33506 5.21475 4.21 5.51283C4.06478 5.93593 3.99383 6.37884 4 6.82383V12.5238C4.00991 12.9715 4.09777 13.4145 4.26 13.8348C4.37906 14.1417 4.56678 14.4204 4.81021 14.6516C5.05364 14.8829 5.34698 15.0612 5.67 15.1743C6.09667 15.3234 6.54565 15.4068 7 15.4213H13C13.4717 15.4169 13.9389 15.3333 14.38 15.1743C14.703 15.0612 14.9964 14.8829 15.2398 14.6516C15.4832 14.4204 15.6709 14.1417 15.79 13.8348C15.9574 13.4158 16.0454 12.972 16.05 12.5238V6.82383C16.0503 6.37524 15.9621 5.93056 15.79 5.51283V5.52233ZM10 13.3028C9.49882 13.3028 9.00257 13.2089 8.53966 13.0264C8.07676 12.8439 7.6563 12.5765 7.30238 12.2393C6.94846 11.9022 6.66803 11.5021 6.47714 11.0619C6.28626 10.6216 6.18868 10.1499 6.19 9.67383C6.19 8.95568 6.4143 8.25367 6.83449 7.65668C7.25468 7.05969 7.85187 6.59456 8.55047 6.32017C9.24906 6.04578 10.0177 5.97447 10.7589 6.11527C11.5002 6.25607 12.1809 6.60264 12.7147 7.11111C13.2485 7.61959 13.6116 8.26711 13.7578 8.97169C13.9041 9.67627 13.827 10.4062 13.5363 11.0692C13.2457 11.7321 12.7545 12.2982 12.125 12.6959C11.4955 13.0935 10.7559 13.3047 10 13.3028ZM14 6.75733C13.7789 6.7351 13.5744 6.63594 13.4257 6.47895C13.277 6.32196 13.1947 6.11826 13.1947 5.90708C13.1947 5.6959 13.277 5.49219 13.4257 5.33521C13.5744 5.17822 13.7789 5.07906 14 5.05683C14.2211 5.07906 14.4256 5.17822 14.5743 5.33521C14.723 5.49219 14.8053 5.6959 14.8053 5.90708C14.8053 6.11826 14.723 6.32196 14.5743 6.47895C14.4256 6.63594 14.2211 6.7351 14 6.75733Z" fill="#444444"/>
</svg>
