<svg width="21" height="20" viewBox="0 0 21 20" fill="none" xmlns="http://www.w3.org/2000/svg">
<path id="Vector" fill-rule="evenodd" clip-rule="evenodd" d="M3 0.173828C2.20435 0.173828 1.44129 0.459797 0.87868 0.968824C0.316071 1.47785 0 2.16824 0 2.88811V16.4595C0 17.1794 0.316071 17.8698 0.87868 18.3788C1.44129 18.8879 2.20435 19.1738 3 19.1738H18C18.7956 19.1738 19.5587 18.8879 20.1213 18.3788C20.6839 17.8698 21 17.1794 21 16.4595V2.88811C21 2.16824 20.6839 1.47785 20.1213 0.968824C19.5587 0.459797 18.7956 0.173828 18 0.173828H3ZM4.653 6.00547C5.1284 6.00547 5.58433 5.8346 5.92049 5.53046C6.25665 5.22632 6.4455 4.81381 6.4455 4.38369C6.4455 3.95356 6.25665 3.54105 5.92049 3.23691C5.58433 2.93277 5.1284 2.7619 4.653 2.7619C4.1776 2.7619 3.72167 2.93277 3.38551 3.23691C3.04935 3.54105 2.8605 3.95356 2.8605 4.38369C2.8605 4.81381 3.04935 5.22632 3.38551 5.53046C3.72167 5.8346 4.1776 6.00547 4.653 6.00547ZM6.153 16.2058V7.27711H3.153V16.2058H6.153ZM8.145 7.27711H11.145V8.47276C11.5875 7.84576 12.5595 7.00161 14.367 7.00161C16.524 7.00161 17.6955 8.29497 17.6955 10.7555C17.6955 10.8735 17.7075 11.4123 17.7075 11.4123V16.2044H14.7075V11.4137C14.7075 10.7555 14.5545 9.46211 12.9375 9.46211C11.319 9.46211 11.1825 11.088 11.145 12.152V16.2044H8.145V7.27711Z" fill="#444444"/>
</svg>
