<svg width="21" height="21" viewBox="0 0 21 21" fill="none" xmlns="http://www.w3.org/2000/svg">
<g id="teenyicons:medium-solid">
<path id="Vector" fill-rule="evenodd" clip-rule="evenodd" d="M0 2.67383C0 2.1434 0.221249 1.63469 0.615076 1.25961C1.0089 0.884542 1.54305 0.673828 2.1 0.673828L18.9 0.673828C19.457 0.673828 19.9911 0.884542 20.3849 1.25961C20.7788 1.63469 21 2.1434 21 2.67383V18.6738C21 19.2043 20.7788 19.713 20.3849 20.088C19.9911 20.4631 19.457 20.6738 18.9 20.6738H2.1C1.54305 20.6738 1.0089 20.4631 0.615076 20.088C0.221249 19.713 0 19.2043 0 18.6738L0 2.67383ZM5.6 7.3405H4.2V6.00716H6.3C6.40867 6.00716 6.51585 6.03126 6.61305 6.07754C6.71025 6.12383 6.7948 6.19103 6.86 6.27383L10.5 10.8965L14.1302 6.28583C14.195 6.19955 14.2806 6.12925 14.3797 6.08078C14.4788 6.03232 14.5886 6.00708 14.7 6.00716H16.8V7.3405H15.4V14.0072H16.8V15.3405H12.6V14.0072H14V8.67383L10.5 13.1178L7 8.67383V14.0072H8.4V15.3405H4.2V14.0072H5.6V7.3405Z" fill="#444444"/>
</g>
</svg>
