<svg width="34" height="34" viewBox="0 0 34 34" fill="none" xmlns="http://www.w3.org/2000/svg">
<g id="Frame">
<path id="Vector" d="M4.36204 11.489H30.498C31.587 11.489 32.544 10.532 32.544 9.44301C32.544 8.35401 31.587 7.36401 30.498 7.36401H4.36204C3.27304 7.36401 2.31604 8.32101 2.31604 9.44301C2.31604 10.565 3.27304 11.489 4.36204 11.489ZM4.36204 19.739H30.498C31.587 19.739 32.544 18.782 32.544 17.693C32.544 16.604 31.587 15.614 30.498 15.614H4.36204C3.27304 15.614 2.31604 16.571 2.31604 17.693C2.31604 18.815 3.27304 19.739 4.36204 19.739ZM4.36204 27.989H30.498C31.587 27.989 32.544 27.032 32.544 25.943C32.544 24.854 31.587 23.864 30.498 23.864H4.36204C3.27304 23.864 2.31604 24.821 2.31604 25.943C2.31604 27.065 3.27304 27.989 4.36204 27.989Z" fill="#FDFDFD"/>
</g>
</svg>
