<svg width="69" height="69" viewBox="0 0 69 69" fill="none" xmlns="http://www.w3.org/2000/svg">
<g id="Group">
<path id="Vector" d="M33.0216 5.92837L10.1087 19.3657C4.5258 22.6398 2.65416 29.8197 5.92824 35.4026L19.3656 58.3156C22.6396 63.8984 29.8196 65.7701 35.4025 62.496L58.3154 49.0587C63.8983 45.7846 65.77 38.6046 62.4959 33.0218L49.0585 10.1088C45.7845 4.52594 38.6045 2.6543 33.0216 5.92837Z" fill="#242938"/>
<path id="Vector_2" d="M36.0847 37.4049C37.8207 36.3868 38.4025 34.1543 37.3845 32.4185C36.3665 30.6826 34.1341 30.1006 32.3981 31.1186C30.6623 32.1366 30.0803 34.3692 31.0983 36.105C32.1162 37.8409 34.3488 38.4228 36.0847 37.4049Z" fill="#00D8FF"/>
<path id="Vector_3" d="M30.4937 27.8714C34.7137 25.3965 38.9892 23.703 42.542 22.9872C46.8224 22.1246 50.102 22.6989 51.089 24.3819C52.1174 26.1355 50.9547 29.4709 47.8732 32.9809C45.5436 35.6346 42.0319 38.366 38.026 40.7153C33.9189 43.1239 29.7543 44.9354 26.2442 45.651C21.8032 46.5561 18.4023 45.863 17.3934 44.1427C16.4145 42.4734 17.4238 39.4031 20.2173 36.1196C22.5775 33.3452 26.2317 30.3708 30.493 27.8718L30.4937 27.8714Z" stroke="#00D8FF" stroke-width="1.74043"/>
<path id="Vector_4" d="M26.8151 34.3477C26.7796 29.4557 27.4482 24.906 28.6031 21.4709C29.9942 17.3319 32.1303 14.7777 34.0809 14.7634C36.1139 14.7485 38.4225 17.4222 39.9238 21.8451C41.0592 25.1884 41.6705 29.5952 41.7043 34.2392C41.739 39.0004 41.2279 43.5129 40.0941 46.9103C38.6595 51.2095 36.3599 53.8096 34.3657 53.8241C32.431 53.8389 30.2753 51.4302 28.8266 47.3699C27.6023 43.9392 26.8513 39.2876 26.8144 34.3481L26.8151 34.3477Z" stroke="#00D8FF" stroke-width="1.74043"/>
<path id="Vector_5" d="M30.5887 40.7697C26.333 38.358 22.7256 35.5055 20.3256 32.7898C17.4344 29.5174 16.2883 26.3913 17.2504 24.6941C18.2529 22.9252 21.722 22.2606 26.3035 23.1689C29.7674 23.8555 33.8905 25.526 37.9307 27.8158C42.0731 30.1636 45.7273 32.8604 48.1045 35.5391C51.1128 38.9291 52.2169 42.2198 51.2334 43.9547C50.2794 45.6381 47.1166 46.3031 42.8752 45.5305C39.2917 44.8778 34.8866 43.2056 30.5887 40.7697Z" stroke="#00D8FF" stroke-width="1.74043"/>
</g>
</svg>
