<svg width="50" height="51" viewBox="0 0 50 51" fill="none" xmlns="http://www.w3.org/2000/svg">
<g id="devicon:vuejs-wordmark">
<path id="Vector" d="M12.5746 38.2627C12.4281 38.2623 12.2847 38.3052 12.1625 38.3861C12.0379 38.4686 11.9238 38.6107 11.9238 38.7928C11.9238 38.817 11.9098 38.8709 11.9566 38.9647L11.9445 38.935L14.4484 47.0588C14.4934 47.2111 14.6008 47.3275 14.7219 47.3947C14.843 47.4619 14.975 47.4865 15.1039 47.4865C15.3773 47.4865 15.6781 47.3561 15.7699 47.0615V47.0607L18.2715 38.9064V38.8768C18.2715 38.9182 18.2836 38.8943 18.2836 38.8053C18.2836 38.6197 18.1652 38.4834 18.0387 38.3979C17.912 38.3109 17.7622 38.2638 17.6086 38.2627C17.4172 38.2627 17.1977 38.3787 17.1242 38.5998L17.1227 38.6022L15.1031 45.342L13.0758 38.6143C13.0457 38.4939 12.9648 38.3936 12.8707 38.3373C12.7766 38.2811 12.6738 38.2627 12.5746 38.2627ZM32.518 38.6814C32.1195 38.6814 31.7836 38.9869 31.7836 39.3689C31.7836 39.751 32.1141 40.067 32.518 40.067C32.9141 40.067 33.2289 39.7451 33.2289 39.3689C33.2289 38.9928 32.9086 38.6814 32.518 38.6814ZM26.6473 41.2822C25.2848 41.2822 24.1625 42.3729 24.1625 43.6834V45.0264C24.1625 45.7604 24.4547 46.3897 24.9516 46.8236C25.4477 47.258 26.1406 47.4982 26.9348 47.4982C27.5215 47.4982 28 47.3666 28.3418 47.1885C28.5134 47.0989 28.65 46.9994 28.7516 46.89C28.8531 46.7807 28.9273 46.6615 28.9273 46.5123C28.9273 46.3756 28.875 46.2568 28.7895 46.1502C28.7039 46.0436 28.5699 45.9455 28.3965 45.9455C28.2715 45.9455 28.1754 45.9982 28.0922 46.0494C28.009 46.1002 27.9309 46.1568 27.8367 46.2111C27.6484 46.3193 27.3992 46.4248 26.9586 46.4248C26.468 46.4248 26.0594 46.285 25.7773 46.0498C25.4961 45.8154 25.332 45.4893 25.332 45.0619V44.8135H27.8457C28.1141 44.8135 28.4121 44.8135 28.6699 44.6494C28.9277 44.4846 29.084 44.1572 29.084 43.66C29.084 42.2811 27.934 41.2822 26.6473 41.2822ZM36.0949 41.2822C35.3707 41.2822 34.8379 41.5166 34.4957 41.8689C34.1535 42.2213 34.0059 42.6799 34.0059 43.108C34.0059 43.6541 34.2266 44.0455 34.5422 44.2959C34.8582 44.5471 35.2512 44.6732 35.625 44.7857C35.9988 44.8982 36.3566 44.9986 36.5969 45.1467C36.8371 45.2951 36.966 45.4549 36.966 45.7928C36.966 45.9744 36.9113 46.1189 36.7641 46.2369C36.6164 46.3553 36.3539 46.4482 35.927 46.4482C35.4219 46.4482 35.1395 46.3236 34.9336 46.1967C34.8309 46.133 34.748 46.067 34.6629 46.008C34.5777 45.949 34.4809 45.8854 34.3453 45.8854C34.1824 45.8854 34.0621 45.9857 33.9891 46.0897C33.9151 46.1916 33.8749 46.3141 33.8738 46.44C33.8738 46.5982 33.9512 46.7373 34.0602 46.858C34.1695 46.9787 34.3168 47.0861 34.498 47.1799C34.8602 47.3674 35.359 47.4982 35.9512 47.4982C36.5945 47.4982 37.1234 47.3412 37.498 47.0365C37.8723 46.7318 38.0762 46.2791 38.0762 45.7572C38.0762 45.1674 37.8617 44.7436 37.5461 44.4631C37.2301 44.183 36.8313 44.0385 36.452 43.9221C36.0727 43.8061 35.7074 43.7154 35.4633 43.5881C35.2191 43.4607 35.1039 43.3432 35.1039 43.0725C35.1039 42.926 35.1625 42.7416 35.3113 42.5959C35.4602 42.451 35.7031 42.333 36.107 42.333C36.4297 42.333 36.6695 42.4072 36.8617 42.4854C36.9578 42.5248 37.0414 42.5658 37.1203 42.6002C37.1996 42.6342 37.2727 42.6678 37.3773 42.6678C37.5668 42.6678 37.6969 42.5428 37.7742 42.4268C37.8516 42.3107 37.8961 42.1963 37.8961 42.065C37.8961 41.901 37.7941 41.7846 37.6812 41.6979C37.5684 41.6111 37.4262 41.5408 37.2621 41.4807C36.934 41.3604 36.5152 41.2822 36.0949 41.2822ZM18.9633 41.3549C18.6465 41.3549 18.3727 41.5537 18.3727 41.8494V45.0498C18.3727 46.3482 19.4766 47.4982 20.8453 47.4982C22.1914 47.4982 23.318 46.3615 23.318 45.0498V41.8377C23.318 41.69 23.2367 41.5615 23.1297 41.4799C23.0227 41.3986 22.8867 41.3549 22.7391 41.3549C22.5914 41.3549 22.4547 41.3979 22.3453 41.4779C22.2359 41.5576 22.1484 41.685 22.1484 41.8377V45.0498C22.1484 45.7303 21.5555 46.3889 20.8453 46.3889C20.1238 46.3889 19.5426 45.7186 19.5426 45.0498V41.8494C19.5426 41.6959 19.4586 41.5779 19.3551 41.4939C19.2516 41.41 19.1148 41.3549 18.9633 41.3549ZM32.5184 41.3549C32.3699 41.3549 32.2332 41.3932 32.1238 41.4756C32.0145 41.5576 31.9402 41.6936 31.9402 41.8377V47.7346C31.9402 48.1771 31.909 48.5482 31.8117 48.7732C31.7148 48.9979 31.6 49.0975 31.2727 49.0975C30.9832 49.0975 30.7414 49.3502 30.7414 49.6529C30.7414 49.7783 30.782 49.9166 30.8848 50.024C30.9875 50.1314 31.1473 50.1951 31.332 50.1951C31.9547 50.1951 32.4312 49.9189 32.7148 49.4705C32.9992 49.0217 33.1094 48.4217 33.1094 47.7346V41.8377C33.1094 41.6842 33.0219 41.5506 32.9102 41.4717C32.7949 41.393 32.6579 41.3522 32.5184 41.3549ZM26.6352 42.3209C27.4129 42.3209 27.9383 42.9721 27.9383 43.6354C27.9383 43.7076 27.9305 43.7549 27.9227 43.7764C27.9156 43.7979 27.9164 43.7951 27.9055 43.8025C27.884 43.8166 27.7637 43.8475 27.534 43.8475H25.332V43.5873C25.332 42.8932 25.9121 42.3209 26.6352 42.3209ZM30.3508 45.9811C29.9258 45.9811 29.6039 46.3326 29.6039 46.7397C29.6039 47.1303 29.9211 47.4865 30.3508 47.4865C30.7578 47.4865 31.0852 47.1412 31.0852 46.7397C31.0852 46.3229 30.7523 45.9811 30.3508 45.9811Z" fill="#35495E"/>
<path id="Vector_2" d="M12.2672 0.154297L19.9738 0.156641L25.0113 8.51875L30.0312 0.157813L37.7313 0.155859L25.05 22.1527L12.2672 0.154297Z" fill="#35495E"/>
<path id="Vector_3" d="M3.86211 0.212305L12.2605 0.155273L25.0426 22.1533L37.7246 0.156445L46.1375 0.16543L25.041 36.3701L3.86211 0.212305Z" fill="#41B883"/>
</g>
</svg>
